<?xml version="1.0" standalone="no"?>
<!DOCTYPE svg PUBLIC "-//W3C//DTD SVG 20010904//EN"
 "http://www.w3.org/TR/2001/REC-SVG-20010904/DTD/svg10.dtd">
<svg version="1.0" xmlns="http://www.w3.org/2000/svg"
 width="539.000000pt" height="539.000000pt" viewBox="0 0 539.000000 539.000000"
 preserveAspectRatio="xMidYMid meet">
<metadata>
Created by potrace 1.11, written by Peter Selinger 2001-2013
</metadata>
<g transform="translate(0.000000,539.000000) scale(0.100000,-0.100000)"
fill="#000000" stroke="none">
<path d="M2460 5272 c0 -5 -19 -10 -42 -11 -41 -2 -55 -3 -143 -17 -22 -3 -52
-7 -67 -7 -16 -1 -28 -5 -28 -9 0 -3 -8 -5 -17 -3 -10 1 -22 0 -28 -4 -5 -3
-14 -6 -20 -8 -5 -1 -21 -4 -35 -7 -14 -3 -36 -8 -50 -11 -14 -4 -36 -8 -49
-11 -13 -3 -32 -9 -43 -15 -10 -5 -18 -8 -18 -5 0 3 -15 -1 -34 -9 -18 -8 -36
-11 -40 -8 -3 4 -6 2 -6 -3 0 -5 -8 -10 -17 -11 -24 -2 -225 -84 -293 -119
-30 -15 -58 -27 -62 -26 -5 1 -8 -3 -8 -8 0 -5 -3 -9 -7 -8 -10 3 -73 -30 -95
-50 -10 -8 -18 -12 -18 -9 0 4 -61 -35 -136 -86 -75 -50 -147 -99 -160 -107
-13 -8 -24 -20 -24 -25 0 -6 -14 -16 -30 -23 -17 -8 -28 -18 -24 -23 5 -8 -9
-13 -28 -10 -5 0 -8 -6 -8 -14 0 -8 -4 -15 -9 -15 -13 0 -211 -198 -211 -210
0 -6 -4 -8 -10 -5 -5 3 -10 3 -10 -2 0 -7 -28 -44 -63 -83 -45 -50 -208 -284
-206 -295 0 -4 -11 -22 -26 -41 -14 -19 -23 -34 -19 -34 4 0 0 -8 -8 -17 -17
-20 -100 -185 -112 -223 -5 -14 -9 -27 -11 -30 -26 -58 -38 -87 -40 -95 -1 -5
-5 -19 -9 -30 -5 -11 -14 -37 -22 -59 -8 -21 -13 -41 -10 -43 2 -2 -2 -16 -9
-30 -8 -15 -12 -30 -9 -35 3 -4 1 -8 -5 -8 -5 0 -8 -8 -6 -17 1 -10 -2 -23 -7
-30 -5 -7 -7 -17 -3 -23 3 -5 2 -10 -2 -10 -5 0 -9 -8 -10 -17 -1 -20 -9 -72
-19 -118 -9 -45 -27 -183 -27 -212 0 -7 -4 -13 -9 -13 -4 0 -8 -90 -8 -200 0
-110 4 -200 8 -200 5 0 9 -22 11 -49 1 -28 4 -60 7 -73 2 -13 7 -39 9 -58 16
-110 27 -167 45 -237 22 -82 56 -195 70 -228 4 -11 16 -40 26 -65 47 -118 123
-280 136 -290 4 -3 12 -17 17 -30 13 -30 22 -44 89 -143 29 -42 50 -77 47 -77
-3 0 4 -11 17 -24 13 -13 30 -34 38 -46 45 -69 269 -310 288 -310 7 0 11 -4 8
-8 -3 -4 11 -21 31 -38 20 -16 41 -34 47 -39 61 -57 278 -215 295 -215 6 0 11
-3 11 -8 0 -7 22 -21 73 -44 15 -7 27 -16 27 -20 0 -4 4 -8 10 -8 5 0 31 -13
59 -29 27 -16 51 -27 54 -25 2 2 10 -2 17 -11 7 -8 16 -15 21 -15 5 0 28 -9
52 -20 82 -38 212 -90 223 -90 7 0 33 -9 58 -20 25 -10 58 -21 74 -24 15 -2
28 -5 30 -6 1 -2 5 -3 10 -4 4 -1 25 -8 46 -14 22 -6 42 -9 45 -7 2 3 9 1 15
-4 6 -5 31 -12 56 -16 25 -3 63 -10 85 -15 22 -5 62 -12 90 -16 27 -3 61 -8
75 -10 58 -9 222 -18 325 -17 95 0 250 8 250 13 0 1 20 3 45 5 47 3 110 12
146 19 12 2 39 7 60 11 45 8 68 13 72 15 3 3 9 5 62 15 52 10 58 12 65 15 3 1
8 3 13 4 9 1 92 26 112 34 8 3 18 6 23 7 4 2 8 3 10 5 1 1 9 3 17 5 35 7 217
84 310 130 93 46 115 59 121 68 3 5 8 7 10 6 9 -6 201 114 232 145 8 8 17 12
21 9 3 -3 8 2 12 11 3 9 12 16 19 16 7 0 15 3 17 8 2 4 23 23 48 42 25 19 54
43 64 52 11 10 23 18 28 18 4 0 8 7 8 15 0 8 5 15 12 15 13 0 183 170 238 239
19 24 50 60 67 80 18 20 33 39 33 43 0 4 11 19 25 34 13 14 30 39 37 55 7 16
16 29 19 29 8 0 79 115 79 129 0 5 8 15 18 20 9 6 13 11 8 11 -5 0 -3 6 3 14
25 30 141 277 141 300 0 9 4 16 10 16 5 0 9 3 8 8 -1 4 6 32 17 62 11 30 20
57 20 60 1 3 11 37 23 75 34 111 57 220 63 295 1 8 5 37 10 65 5 27 10 67 11
88 1 21 5 40 10 43 12 7 10 401 -2 409 -5 3 -9 16 -9 28 2 22 -8 104 -16 143
-3 12 -7 39 -11 60 -5 33 -27 136 -34 162 -2 4 -4 12 -5 17 -1 6 -7 26 -13 45
-5 19 -16 56 -23 83 -7 26 -17 47 -22 47 -4 0 -6 4 -3 9 6 10 -33 114 -89 238
-19 40 -35 77 -36 81 -2 4 -9 13 -16 20 -7 8 -11 18 -8 23 4 5 2 9 -2 9 -5 0
-19 19 -31 43 -25 47 -25 48 -103 167 -52 79 -156 217 -200 265 -73 81 -217
221 -282 274 -42 35 -77 68 -77 74 0 6 -3 7 -6 4 -4 -4 -23 6 -43 22 -46 35
-207 142 -243 160 -16 8 -28 18 -28 23 0 5 -4 6 -10 3 -5 -3 -10 -1 -10 5 0 6
-4 8 -10 5 -5 -3 -10 -1 -10 5 0 6 -4 8 -10 5 -5 -3 -10 -1 -10 5 0 6 -4 9 -9
5 -5 -3 -16 1 -24 9 -8 8 -17 12 -21 9 -3 -4 -6 0 -6 7 0 7 -3 11 -6 7 -3 -3
-22 4 -42 15 -63 35 -193 88 -203 82 -5 -3 -9 -1 -9 4 0 8 -136 58 -184 68
-10 2 -33 8 -51 14 -36 12 -69 20 -102 25 -11 2 -31 6 -43 10 -12 4 -32 8 -43
10 -12 2 -35 6 -52 10 -41 9 -149 22 -207 26 -21 1 -38 6 -38 11 0 4 -101 8
-225 8 -124 0 -225 -4 -225 -8z"/>
</g>
</svg>
