<?xml version="1.0" encoding="UTF-8" standalone="no"?>
<!-- Created with Inkscape (http://www.inkscape.org/) -->

<svg
   xmlns:dc="http://purl.org/dc/elements/1.1/"
   xmlns:cc="http://creativecommons.org/ns#"
   xmlns:rdf="http://www.w3.org/1999/02/22-rdf-syntax-ns#"
   xmlns:svg="http://www.w3.org/2000/svg"
   xmlns="http://www.w3.org/2000/svg"
   xmlns:sodipodi="http://sodipodi.sourceforge.net/DTD/sodipodi-0.dtd"
   xmlns:inkscape="http://www.inkscape.org/namespaces/inkscape"
   version="1.1"
   id="svg36"
   width="471.95908"
   height="296.74606"
   viewBox="0 0 471.95908 296.74606"
   sodipodi:docname="logo.svg"
   inkscape:version="0.92.0 r15299">
  <metadata
     id="metadata42">
    <rdf:RDF>
      <cc:Work
         rdf:about="">
        <dc:format>image/svg+xml</dc:format>
        <dc:type
           rdf:resource="http://purl.org/dc/dcmitype/StillImage" />
        <dc:title></dc:title>
      </cc:Work>
    </rdf:RDF>
  </metadata>
  <defs
     id="defs40" />
  <sodipodi:namedview
     pagecolor="#ffffff"
     bordercolor="#666666"
     borderopacity="1"
     objecttolerance="10"
     gridtolerance="10"
     guidetolerance="10"
     inkscape:pageopacity="0"
     inkscape:pageshadow="2"
     inkscape:window-width="1366"
     inkscape:window-height="705"
     id="namedview38"
     showgrid="false"
     fit-margin-top="0"
     fit-margin-left="0"
     fit-margin-right="0"
     fit-margin-bottom="0"
     inkscape:zoom="1.8047138"
     inkscape:cx="232.12184"
     inkscape:cy="125.62771"
     inkscape:window-x="-8"
     inkscape:window-y="-8"
     inkscape:window-maximized="1"
     inkscape:current-layer="svg36" />
  <g
     id="g46"
     transform="translate(-1.0729983,-0.09994424)">
    <path
       style="fill:#cfcfcf"
       d="m 209.95133,295.62949 c -2.50177,-0.72575 -5.78271,-2.12813 -7.29098,-3.11638 -4.23785,-2.77675 -7.77419,-9.677 -8.37928,-16.35 -0.71766,-7.91455 1.49209,-12.48307 7.99248,-16.52394 l 4.89473,-3.04273 -4.8649,-1.58594 c -6.36682,-2.07556 -17.41645,-8.1539 -24.28271,-13.35777 C 158.63512,226.96061 145.91438,207.08957 139.8331,182 c -0.84787,-3.49809 -1.29429,-11.14173 -1.22648,-21 0.0944,-13.72589 0.41374,-16.53013 2.78974,-24.5 6.75031,-22.64269 19.41039,-41.019651 37.47945,-54.403957 11.58154,-8.578803 30.61303,-16.730419 40.48414,-17.340266 L 223.5,64.5 v 5.891014 c 0,6.854943 0.77612,6.231153 -13.1975,10.607156 -28.68496,8.983024 -50.46593,33.19509 -57.00421,63.36676 -3.19623,14.74936 -1.43069,35.94113 4.14051,49.69853 12.48587,30.83234 40.68613,51.01744 75.0612,53.7271 l 9,0.70944 v 5.47047 c 0,4.8189 -0.29776,5.62661 -2.5,6.78144 -1.66699,0.87416 -4.27964,1.10614 -7.84099,0.69621 l -5.34098,-0.61477 2.46988,4.33333 c 3.81045,6.68531 4.14943,11.98612 1.22035,19.08332 -2.12216,5.14204 7.53412,-2.41926 10.41489,-8.15532 2.4069,-4.79251 3.86556,-11.76605 4.64729,-22.21767 0.95814,-12.81028 1.33942,-12.37288 -10.80848,-12.39947 C 228.11788,241.46518 221.025,240.84986 218,240.11016 199.09465,235.48722 183.66708,220.89376 177.34943,201.65739 173.6621,190.42998 173.46348,175.0497 176.86312,164 c 6.04396,-19.64443 18.29191,-36.00385 39.79886,-53.15883 l 11.16197,-8.90333 -0.55987,-21.302926 c -0.99962,-38.035231 3.30108,-61.359192 13.76477,-74.6502809 4.43481,-5.6331475 12.75842,-7.2651768 22.54436,-4.4203255 22.49402,6.5391883 23.80268,53.8351054 2.49891,90.3122024 -5.03346,8.61848 -11.75193,17.70483 -18.59384,25.14712 -3.01305,3.27745 -5.47701,6.7504 -5.47546,7.71768 0.003,2.04174 1.80752,18.29786 2.5382,22.86892 l 0.49717,3.11024 8.44045,0.52658 c 10.97234,0.68454 19.34938,4.45054 27.06724,12.16839 16.69881,16.69882 17.43133,44.6128 1.58631,60.44936 -5.49219,5.48925 -15.67359,11.62703 -23.36616,14.08609 l -3.73396,1.19363 0.56131,8.67774 c 1.4021,21.67602 -7.99374,43.53522 -20.27955,47.17988 -5.99223,1.77763 -20.18698,2.12874 -25.3625,0.62735 z m 31.79251,-67.45001 c 0.98193,-0.62357 0.82212,-4.46328 -0.7589,-18.23469 -1.10151,-9.59463 -2.43554,-21.2191 -2.96453,-25.83214 -0.52898,-4.61304 -1.177,-8.60257 -1.44005,-8.86562 -0.26305,-0.26305 -1.96374,0.0391 -3.77931,0.67135 -13.93299,4.8523 -18.38352,17.46215 -11.47297,32.50676 2.99762,6.52596 2.52308,8.25629 -1.95597,7.13212 -4.80777,-1.20668 -10.97395,-8.37984 -12.90064,-15.00741 -2.1482,-7.38953 -1.59828,-17.21408 1.33465,-23.84447 3.08857,-6.98222 12.0265,-15.85613 19.84963,-19.70744 l 6.57552,-3.23712 -0.65582,-6.13041 C 232.50738,137.64634 231.85258,135 230.45025,135 c -2.40165,0 -17.07761,11.82468 -24.58434,19.80803 -8.55644,9.09972 -12.25821,15.81018 -14.46514,26.22201 -4.61458,21.77055 5.97102,38.86101 28.54426,46.08474 5.72209,1.83115 19.52992,2.50555 21.79881,1.0647 z m 21.81386,-12.54607 c 9.02044,-10.46219 8.47459,-27.93057 -1.10098,-35.23422 -3.35619,-2.55989 -12.86083,-6.66175 -13.63724,-5.88534 -0.38527,0.38527 0.38032,8.31321 3.13715,32.48615 0.5959,5.225 1.34881,10.95877 1.67314,12.74171 l 0.5897,3.24172 3.00224,-1.74172 c 1.65123,-0.95794 4.50243,-3.48168 6.33599,-5.6083 z M 244.15692,86.25 c 1.96233,-2.6125 4.36401,-5.998872 5.33705,-7.525271 l 1.76917,-2.775272 -2.52425,0.959717 c -3.68874,1.402457 -6.66822,0.274117 -7.3373,-2.778666 -1.11916,-5.106339 -1.24446,-4.526637 -1.32264,6.119492 -0.0434,5.9125 0.0536,10.75 0.21556,10.75 0.16199,0 1.90007,-2.1375 3.86241,-4.75 z m 11.40067,-18.364349 c 4.60848,-9.151224 7.75226,-21.084123 6.94846,-26.374421 -0.33333,-2.193823 -1.56199,-5.006323 -2.73036,-6.25 -2.60102,-2.768651 -7.7856,-3.012747 -10.08251,-0.474694 -2.69895,2.982307 -5.71137,10.804905 -7.24242,18.80696 -1.82389,9.53261 -1.86803,11.223778 -0.25076,9.606504 2.62989,-2.629891 12.47256,-0.315459 12.15641,2.858492 -0.079,0.792829 -0.87251,3.129008 -1.76342,5.191508 -2.73266,6.326249 -0.82567,4.162121 2.9646,-3.364349 z m 3.0494,188.532559 C 258.27314,255.54823 258,253.14297 258,251.0732 c 0,-4.26581 1.93533,-6.54054 6.5,-7.63991 1.65,-0.39739 6.15,-2.28499 10,-4.19467 25.50014,-12.64857 42.15949,-35.08243 47.10346,-63.43059 C 327.57125,141.58944 310.2985,105.16535 279.75,87.549113 276.66078,85.767671 275,84.132672 275,82.87286 c 0,-2.480273 2.47293,-8.429081 3.86047,-9.286628 2.57204,-1.589609 18.78054,9.098258 28.42705,18.744769 11.34548,11.345469 21.67946,29.451059 25.78076,45.168999 3.17253,12.15849 3.67942,31.34196 1.14942,43.5 -3.76341,18.08524 -12.41947,35.23353 -24.55122,48.63779 -9.25408,10.22474 -26.86796,21.78685 -40.15407,26.35794 -7.02141,2.41572 -10.09485,2.53479 -10.90542,0.42248 z m 60.90745,-30.39484 c -0.68298,-1.10508 0.72368,-4.08045 4.02959,-8.52337 5.35904,-7.20219 11.3187,-21.8487 14.09015,-34.62803 2.66912,-12.30751 2.47166,-34.44367 -0.41084,-46.05873 C 333.49613,121.79446 327.89982,110.1731 318.83095,98.619372 316.72393,95.935026 315,93.348822 315,92.872252 c 0,-1.833734 7.76629,-9.384157 13.43389,-13.060487 8.65816,-5.616181 19.20717,-8.446078 44.06611,-11.821259 37.94673,-5.152152 49.37752,-7.872289 70.5,-16.776594 8.90083,-3.752199 16.503,-7.686756 23.89628,-12.367694 12.61746,-7.98854 2.59961,8.353301 -11.73155,19.137362 -17.36358,13.065931 -39.64386,19.748595 -76.85525,23.051686 -22.97772,2.03963 -35.48378,5.405901 -40.8353,10.991687 -2.7414,2.861405 -2.82272,3.191799 -1.53747,6.247117 13.73673,32.65527 16.64252,67.9385 7.70196,93.51994 -3.81431,10.91379 -9.48255,21.43869 -14.82775,27.53246 -5.45441,6.21826 -8.31757,8.2808 -9.29648,6.6969 z M 145.5798,219.54811 c -8.27379,-9.42397 -15.22493,-25.1167 -18.61837,-42.0324 -1.72038,-8.57579 -1.47249,-32.30611 0.44247,-42.35822 2.42823,-12.7463 4.40994,-19.82823 8.25392,-29.49656 4.35382,-10.950654 4.05693,-12.641137 -2.91988,-16.625758 C 126.62755,85.545379 118.28489,83.47559 104.44492,82.015758 74.254853,78.831326 62.634333,76.988353 50.411012,73.446173 40.303042,70.516999 28.162373,64.67056 20.760189,59.167576 11.106998,51.991132 -0.61789208,38.284559 1.2761857,36.390481 1.458864,36.207803 4.0589543,37.416383 7.054164,39.076216 37.516856,55.957493 56.90633,61.960196 99,67.541327 c 24.43852,3.240264 31.64037,4.832516 40.76168,9.011969 C 147.0181,79.878249 159,89.867038 159,92.591457 c 0,0.707859 -2.54124,4.80186 -5.64721,9.097783 -18.34469,25.37291 -23.62227,56.83665 -14.72895,87.81076 2.7556,9.59734 9.93987,25.85859 13.32659,30.16412 2.34704,2.98377 2.70241,6.33588 0.67169,6.33588 -0.75783,0 -3.92688,-2.90335 -7.04232,-6.45189 z M 112.5,191.12904 C 97.059182,185.77611 76,173.45909 76,169.78104 c 0,-1.82596 0.607577,-1.89407 11.75,-1.31731 17.50953,0.90633 31.4654,2.62731 34,4.19273 1.49311,0.92218 2.25,2.3611 2.25,4.2775 0,1.58832 0.87751,5.7073 1.95003,9.1533 1.07251,3.44599 1.72095,6.63608 1.44098,7.08909 -0.95466,1.54468 -6.87939,0.73011 -14.89101,-2.04731 z M 347.2806,191.25 c 0.27917,-1.5125 1.05384,-5.45 1.72147,-8.75 0.66764,-3.3 1.38987,-6.97665 1.60497,-8.17034 0.25515,-1.41597 1.34724,-2.36548 3.14202,-2.73177 3.56705,-0.72799 20.82125,-2.3096 34.59855,-3.17149 10.25889,-0.64178 10.82854,-0.57679 10.49623,1.1975 C 397.76343,175.3924 360.29421,194 349.75886,194 c -2.71369,0 -2.93959,-0.25067 -2.47826,-2.75 z M 95.5,164.41411 c -25.702395,-2.13054 -31.390678,-4.23264 -42.066165,-15.54548 -10.979662,-11.63518 -10.84158,-13.81749 0.762087,-12.04435 7.793944,1.19099 22.521925,2.60764 42.804078,4.11723 13.69539,1.01934 21.846,2.49418 24.4971,4.43271 1.51108,1.10493 1.6301,2.4187 0.99118,10.94075 L 121.76216,166 116.63108,165.8702 C 113.80899,165.79881 104.3,165.14357 95.5,164.41411 Z M 352.5475,164.75 c -0.21435,-0.6875 -0.67473,-5.20022 -1.02307,-10.02827 l -0.63335,-8.77827 3.30446,-1.3663 c 4.00531,-1.65608 13.94645,-2.93181 44.80446,-5.74969 27.88107,-2.54603 30.20474,-2.64383 30.66881,-1.29091 0.59356,1.73038 -11.3291,14.98735 -16.92287,18.81679 -7.03229,4.81423 -13.73933,6.31772 -36.23599,8.12287 -22.94796,1.84137 -23.47184,1.84735 -23.96245,0.27378 z M 113.31693,137.97003 C 108.81624,137.0133 99.141242,135.92461 91.816931,135.55072 71.670982,134.52231 53.819904,132.27869 47.768168,130.01445 44.783394,128.8977 40.504113,126.41143 38.258654,124.4894 33.522716,120.43562 26,109.03281 26,105.90793 c 0,-2.39193 -0.444046,-2.42873 11.751622,0.97392 9.295352,2.59345 17.96068,3.72956 43.181332,5.6615 24.409666,1.86981 34.630266,3.52911 40.898496,6.63981 4.49036,2.22841 4.6589,2.46951 4.41576,6.31684 -0.3532,5.58864 -2.54936,13.81004 -3.74721,14.02778 -0.55,0.1 -4.68238,-0.60102 -9.18307,-1.55775 z m 237.27603,0.89342 c -0.23724,-0.7499 -1.1447,-4.68995 -2.01657,-8.75567 -1.18088,-5.50667 -1.29918,-7.73688 -0.46379,-8.74346 2.62166,-3.15891 16.96766,-6.41344 34.79861,-7.89442 42.12496,-3.49874 53.85011,-5.22664 61.1768,-9.01541 5.95466,-3.07928 6.51367,0.65086 1.28266,8.55886 -11.21935,16.96088 -18.3203,19.75353 -55.87067,21.97271 -16.83084,0.99468 -29.32433,2.57694 -36.23785,4.58942 -1.46994,0.4279 -2.38586,0.18357 -2.66919,-0.71203 z M 118.5,112.92786 c -5.99886,-2.07414 -11.50199,-3.05134 -22,-3.90658 -30.226747,-2.4625 -46.207572,-4.14996 -53.444003,-5.64331 C 24.567359,99.562559 16.924029,91.97229 9.4559399,70.011172 6.0685731,60.050075 5.104806,54 6.9053864,54 7.4033489,54 9.7658489,55.63407 12.155386,57.631267 30.884217,73.284991 49.962406,80.070209 82,82.471723 c 11.83289,0.886985 30.60786,3.20782 36.33688,4.491722 5.4354,1.218097 15.64508,6.104971 17.55009,8.400361 1.04693,1.261471 0.72653,2.710284 -1.84249,8.331604 -4.66013,10.1969 -5.45236,11.62792 -6.54448,11.82137 -0.55,0.0974 -4.6,-1.06759 -9,-2.58892 z m 226.86534,1.89031 c -0.74294,-1.17009 -3.47454,-7.33102 -6.61546,-14.920706 -1.61124,-3.893399 -0.5134,-5.396936 6.43178,-8.80855 8.01279,-3.936047 16.06492,-5.572505 37.31834,-7.584317 45.64548,-4.320722 62.68379,-10.074729 80.65973,-27.239601 C 466.83211,52.758321 469,52.608927 469,55.862533 c 0,0.959475 -1.5094,6.220417 -3.35423,11.690983 -8.27393,24.53514 -15.42027,31.924299 -34.66035,35.838054 -7.4699,1.5195 -29.82501,3.89341 -47.98542,5.09562 -15.68277,1.03819 -23.97214,2.69184 -35.14885,7.01185 -0.91251,0.3527 -2.02262,0.0486 -2.48581,-0.68087 z"
       id="path62"
       inkscape:connector-curvature="0" />
    <path
       style="fill:#b0afaf"
       d="m 211.46763,295.65182 c -6.82876,-1.95059 -11.11908,-5.31137 -13.8971,-10.88614 -2.94681,-5.91346 -3.40554,-13.25028 -1.10645,-17.69622 1.81751,-3.51468 6.8929,-7.86997 10.11299,-8.67816 3.61518,-0.90735 2.94064,-2.17715 -1.82707,-3.43938 -6.87691,-1.82064 -21.12669,-9.81346 -29.17738,-16.36583 -15.84081,-12.89269 -27.0562,-29.80792 -33.20884,-50.08609 -2.51668,-8.29457 -2.72997,-10.33248 -2.72129,-26 0.008,-14.34968 0.34994,-18.24721 2.19362,-25 7.45258,-27.29635 26.70238,-50.876153 51.78086,-63.428329 8.76055,-4.384791 25.55822,-9.602159 27.9544,-8.682656 1.16502,0.447059 1.46114,1.839891 1.23128,5.791477 l -0.30265,5.202856 -9,2.633281 c -11.53935,3.376259 -14.97449,4.894316 -23.23875,10.269644 -13.3166,8.661537 -23.09578,19.477867 -29.99308,33.174077 -6.69043,13.28543 -9.26773,24.32588 -9.268,39.70168 -4.1e-4,23.12323 7.61477,42.65672 23.08994,59.22738 15.26325,16.34374 34.60656,25.32871 58.65989,27.24752 l 8.25,0.65812 v 4.87392 c 0,6.43209 -2.28099,7.67277 -11.29809,6.14528 -3.41105,-0.57783 -6.3743,-0.90003 -6.58499,-0.71601 -0.2107,0.18402 1.00787,1.91879 2.70792,3.85504 1.70005,1.93626 3.59653,5.39785 4.2144,7.69244 1.08747,4.03857 0.93838,5.30524 -1.61469,13.71813 -0.64793,2.13508 -0.48543,2.29393 1.67904,1.64132 3.9813,-1.20041 9.7884,-7.60054 11.81783,-13.0247 2.31742,-6.19385 4.55363,-27.02205 3.27292,-30.48414 -0.86421,-2.3362 -1.20265,-2.41409 -9.2956,-2.13945 -17.89198,0.60718 -31.94869,-4.678 -43.51914,-16.36275 -14.97933,-15.1273 -20.66899,-36.26734 -15.3637,-57.08417 5.3809,-21.11353 18.25637,-38.68416 42.36707,-57.81665 l 9.88298,-7.84241 -0.65689,-6.625448 C 226.87381,77.623672 226.82708,65.069446 228.44294,50.5 c 3.21349,-28.974421 8.95942,-43.611815 19.03444,-48.4890501 4.80795,-2.32748654 8.30262,-2.49501124 14.34552,-0.6876837 6.39005,1.911152 10.70252,5.8870676 14.02425,12.9297578 12.53385,26.574143 0.0915,71.020388 -28.3268,101.188226 -2.56008,2.71769 -5.08695,5.74894 -5.61527,6.73611 -0.63468,1.18591 -0.44226,6.24242 0.56717,14.90387 0.84026,7.20995 1.52775,13.46116 1.52775,13.89157 0,0.43041 3.94529,0.97119 8.7673,1.20173 7.21618,0.34501 9.97,0.98198 15.56522,3.6003 18.28698,8.55751 28.28193,29.92815 23.17224,49.54557 -3.83342,14.7175 -12.96115,23.92891 -30.44926,30.72843 l -6.5555,2.54883 0.33305,9.95117 c 0.80352,24.00852 -8.23844,42.5244 -22.8911,46.87577 -6.08231,1.80625 -14.61487,1.90095 -20.47432,0.22722 z m 30.07549,-66.66821 c 2.34376,-0.8911 2.60044,-1.41502 2.0822,-4.25 C 243.3002,222.95512 242.56384,217 241.98896,211.5 c -2.25864,-21.60883 -4.23139,-36.04144 -5.04422,-36.90358 -1.472,-1.5613 -10.24462,2.49723 -14.14489,6.54393 -6.04117,6.26796 -7.27187,14.19596 -3.70385,23.85965 4.03438,10.92681 3.50111,12.22478 -3.17432,7.7262 -9.36117,-6.30849 -12.71234,-21.18247 -7.75919,-34.43869 2.72793,-7.3008 11.86379,-16.72124 20.10688,-20.73319 3.17315,-1.54438 6.00414,-3.18785 6.2911,-3.65216 0.49958,-0.80834 -1.23371,-17.02139 -2.1047,-19.68713 -0.80301,-2.45771 -10.93946,4.54772 -24.57495,16.98407 -9.66482,8.81488 -16.06063,20.63848 -17.88211,33.05775 -3.05948,20.86025 8.55709,37.57086 30.50129,43.87656 6.79286,1.95193 17.05482,2.36655 21.04312,0.8502 z m 22.49267,-12.78908 c 9.38754,-10.59719 9.31886,-27.65387 -0.14349,-35.64052 -4.0307,-3.40209 -10.50369,-6.50141 -13.6423,-6.53205 -1.8773,-0.0183 -2.24918,0.51639 -2.24506,3.22804 0.007,4.5609 4.89195,44.77415 5.57291,45.87597 0.86421,1.39831 6.22871,-2.15724 10.45794,-6.93144 z M 245.99184,85.25 C 256.36814,71.190323 263,55.202705 263,44.247924 263,38.505617 262.69889,37.54504 260.07692,34.923077 252.64199,27.488143 245.69835,34.166839 241.86606,52.439076 239.54313,63.514764 238.09157,92 239.85011,92 c 0.63806,0 3.40184,-3.0375 6.14173,-6.75 z M 243.2,75.8 c -1.7496,-1.749601 -1.52664,-10.284027 0.30846,-11.807024 1.60133,-1.328984 8.10799,-0.776529 9.70886,0.824341 0.94434,0.94434 -1.58435,7.405843 -4.08279,10.432683 -1.67657,2.031141 -4.21787,2.266664 -5.93453,0.55 z m 16.46667,180.53333 c -1.17041,-1.1704 -0.71441,-9.05055 0.58333,-10.08056 0.6875,-0.54567 3.05,-1.56261 5.25,-2.25987 21.60569,-6.84762 42.16239,-26.2176 51.41739,-48.44909 8.21112,-19.72401 8.84537,-40.2222 1.89558,-61.263 -6.55383,-19.84198 -20.73939,-37.272647 -38.55527,-47.375201 -3.05534,-1.732542 -4.24445,-3.049032 -4.25,-4.705269 C 275.99848,79.447646 278.65896,74 280.01252,74 c 2.60642,0 16.14428,9.381536 23.63564,16.37914 19.63643,18.34221 29.95507,40.55417 31.07557,66.8935 1.0126,23.80294 -3.79578,41.09832 -16.74414,60.22736 -5.1954,7.67534 -16.8555,19.61103 -24.56047,25.14096 -11.60454,8.3287 -31.1764,16.26843 -33.75245,13.69237 z M 146.37482,218.75 c -7.90923,-8.2113 -12.93569,-18.65741 -17.4428,-36.25 -1.92837,-7.52702 -2.30229,-11.5368 -2.28467,-24.5 0.0224,-16.46019 1.15522,-24.29834 5.85347,-40.5 1.43543,-4.95 3.70996,-11.41688 5.05452,-14.37084 3.07614,-6.758198 3.06477,-8.599964 -0.0725,-11.737235 C 131.56429,85.473376 121.94024,83.107963 89,79.475738 72.396064,77.644869 57.400367,74.854389 48,71.846236 39.67043,69.180742 26.996732,62.925186 21.660559,58.845465 11.457616,51.044902 0.78480897,39 4.0757896,39 4.6957221,39 9.7697782,41.44948 15.35147,44.443289 38.679348,56.955484 59.777528,63.258181 92.5,67.490007 c 31.68941,4.098225 38.79669,5.658069 48.91103,10.734556 C 147.57341,81.317523 158,90.342977 158,92.584294 c 0,0.711799 -2.53772,4.809023 -5.63937,9.104946 -13.90308,19.25635 -19.99774,41.87215 -18.17376,67.43841 0.37778,5.29521 1.35973,12.04521 2.18211,15 0.82239,2.95479 2.1781,7.80323 3.01271,10.77431 1.62293,5.77741 8.64041,20.87165 11.74014,25.25241 4.17688,5.90308 1.54029,5.12306 -4.74701,-1.40437 z m 175.50159,3.5 c 0.52073,-0.9625 2.56287,-4.42568 4.53807,-7.69596 4.68307,-7.75358 9.00669,-19.08467 11.71927,-30.71319 3.13208,-13.42685 3.097,-33.6952 -0.0809,-46.74064 -3.81996,-15.68108 -9.0178,-26.64234 -18.24767,-38.480838 C 317.71233,95.935026 316,93.363184 316,92.904168 c 0,-1.765595 6.41112,-8.013222 12.16742,-11.857129 10.00065,-6.678181 18.78499,-8.95622 50.33258,-13.052722 20.87019,-2.710026 33.38973,-5.244002 47.5,-9.614085 11.26407,-3.488586 33.17758,-13.234306 38.86704,-17.285557 1.57946,-1.124675 4.06274,-2.497677 5.51839,-3.051115 l 2.64664,-1.00625 -1.46549,2.833948 C 469.07901,44.681671 457.86505,55.493712 450.28342,60.3916 432.40372,71.942255 412.10594,77.288601 372,81.011117 c -19.16109,1.778476 -29.00879,4.679149 -34.75,10.235731 -3.82339,3.700438 -3.9198,4.519908 -1.16667,9.916492 9.23642,18.10489 14.31954,54.60015 10.49301,75.33666 -2.19266,11.88236 -3.94185,17.16626 -9.32663,28.17363 C 332.92543,213.51315 324.73444,224 322.15441,224 c -0.86047,0 -0.94316,-0.52054 -0.278,-1.75 z M 112.5,190.14688 C 98.89879,185.46202 77,172.98076 77,169.91358 c 0,-2.00174 39.79281,0.91425 44.25,3.24262 0.9625,0.50279 1.75,1.92057 1.75,3.15063 0,1.23005 0.83641,5.25281 1.85869,8.93946 1.02228,3.68665 1.62228,6.93941 1.33333,7.22836 -1.13843,1.13843 -6.05611,0.30238 -13.69202,-2.32777 z M 348.2806,190.25 c 1.55994,-8.45132 3.03028,-14.92868 3.68869,-16.25 0.9155,-1.83724 5.90735,-2.60347 26.03071,-3.99559 8.525,-0.58975 16.35157,-1.1695 17.39237,-1.28834 4.50666,-0.51457 2.11497,2.59105 -6.0754,7.88893 -13.34467,8.6319 -31.79312,16.34603 -39.18047,16.38313 -2.03659,0.0102 -2.29329,-0.36849 -1.8559,-2.73813 z m 6.02296,-25.09252 c -0.55829,-0.36161 -1.32279,-4.5251 -1.69889,-9.2522 -0.55545,-6.98141 -0.40525,-8.82589 0.80016,-9.82629 2.14243,-1.77807 15.71596,-3.72873 43.09517,-6.19326 13.2,-1.18819 25.96654,-2.37317 28.37008,-2.63329 2.80681,-0.30375 4.2377,-0.0971 4,0.57765 -1.00762,2.86042 -11.88773,14.62724 -16.39588,17.73212 -7.04151,4.84967 -12.89273,6.16081 -35.4742,7.94902 -10.725,0.8493 -19.99081,1.71508 -20.59068,1.92396 -0.59988,0.20887 -1.54747,0.0839 -2.10576,-0.27771 z M 93.5,163.35283 C 75.490593,161.80212 68.516469,160.13944 62.415906,155.94214 56.788759,152.07056 47,141.13777 47,138.72455 c 0,-1.69165 0.533753,-1.86873 4.25,-1.40999 2.3375,0.28855 14.375,1.46064 26.75,2.60464 27.65534,2.5566 38.28734,3.85935 41.51652,5.08708 2.11236,0.80312 2.48218,1.58302 2.47479,5.21897 -0.005,2.35111 -0.29246,6.63725 -0.63929,9.52475 l -0.6306,5.25 -5.61071,-0.13474 C 112.02482,164.79115 102.3,164.11056 93.5,163.35283 Z m 22,-25.98159 C 112.75,136.61934 103.975,135.5573 96,135.01115 56.740746,132.32253 48.144125,130.78461 40.197659,125.02822 33.780592,120.37972 24.185736,104.95159 27.75,105.0129 c 0.4125,0.007 3.463559,0.86382 6.780131,1.90384 8.460447,2.65304 23.664934,4.77931 46.969869,6.5685 24.09396,1.84976 31.16933,2.92641 38.45304,5.85133 l 5.54696,2.22749 -0.22775,4.57126 c -0.26554,5.32983 -2.33163,12.12541 -3.77225,12.40731 -0.55,0.10763 -3.25,-0.4195 -6,-1.17139 z m 235.5139,-0.83468 C 350.45625,135.06984 350,133.1638 350,132.30092 c 0,-0.86288 -0.53756,-3.3631 -1.19458,-5.55604 -1.45861,-4.86838 -0.46782,-5.84219 8.88245,-8.73019 6.48713,-2.00367 14.21283,-2.93699 45.71928,-5.52322 18.91154,-1.55237 35.7124,-4.47564 40.79319,-7.09783 1.48519,-0.7665 2.94769,-1.39364 3.25,-1.39364 1.5592,0 0.14384,4.13988 -3.08153,9.01335 -10.7395,16.22717 -17.7152,18.93567 -54.13338,21.01871 -16.56746,0.94762 -32.3581,2.92657 -36.7259,4.60266 -0.97345,0.37354 -1.82953,-0.3462 -2.49563,-2.09816 z M 123.12049,113.45468 C 116.74752,110.68818 108.48547,109.09617 95,108.03616 53.92835,104.80777 47.772593,104.05302 36.90552,100.91325 24.952872,97.459834 17.835747,90.023573 12.104367,75 6.8368861,61.192438 5.7544366,53.82656 9.3909051,56.53537 10.103143,57.065916 13.794059,59.877909 17.592941,62.784241 35.22062,76.270287 48.883516,80.142795 94.5,84.582199 c 18.87018,1.836449 26.66627,3.458263 34.08434,7.09054 7.7551,3.797297 8.23445,4.617877 5.64,9.654771 -1.18207,2.29487 -3.04081,6.30999 -4.13054,8.92249 -2.19753,5.26828 -2.20822,5.27319 -6.97331,3.20468 z M 345.35306,113.25 c -0.3213,-0.9625 -1.88218,-4.61302 -3.46862,-8.11227 C 340.298,101.63848 339,97.988672 339,97.027051 c 0,-2.380207 10.01116,-7.602139 18.10303,-9.442734 3.51833,-0.800289 14.04697,-2.171806 23.39697,-3.047816 24.89762,-2.332679 36.91453,-4.130239 46.79659,-7.000108 13.85948,-4.024962 25.25972,-10.344481 34.93786,-19.367178 3.99233,-3.721944 4.83747,-4.145366 5.39164,-2.701234 0.79812,2.079866 -4.51107,18.52167 -8.78253,27.198228 -1.73473,3.523744 -5.16216,8.228887 -7.77372,10.671695 -9.22107,8.625226 -19.66985,10.765806 -71.77572,14.704266 -13.20388,0.99803 -24.1306,3.1944 -29.08633,5.84662 -2.90732,1.55595 -4.17791,1.38877 -4.85473,-0.63879 z"
       id="path60"
       inkscape:connector-curvature="0" />
    <path
       style="fill:#8f8d8e"
       d="m 213,296.1243 c -9.68043,-3.18543 -15.51516,-9.14695 -17.06339,-17.4342 -1.66413,-8.90766 3.18506,-17.44784 11.28501,-19.87464 2.07811,-0.62262 3.77838,-1.43878 3.77838,-1.81369 0,-0.37491 -1.9125,-1.23328 -4.25,-1.90749 -6.75995,-1.94978 -20.32613,-8.93018 -27.06056,-13.92384 C 132.05758,205.85081 125.61747,138.25162 165.84385,95.838951 170.43297,91.000416 177.02175,85.019278 180.48559,82.547533 192.34913,74.081889 209.21032,66.935452 218,66.647448 L 222.5,66.5 l 0.29951,4.086468 c 0.36635,4.998491 -0.29897,5.56374 -9.29951,7.900808 -23.62862,6.135373 -42.96306,22.197444 -54.41728,45.207114 -18.37312,36.90862 -7.48743,83.13691 25.40681,107.8951 13.67689,10.29405 28.698,15.80902 46.86656,17.20695 L 240.5,249.5 l 0.30991,3.20379 c 0.17045,1.76209 -0.21548,4.1855 -0.85762,5.38536 -1.1108,2.07555 -1.6118,2.15054 -10.30991,1.54319 l -9.14238,-0.63837 2.71966,2.42895 c 6.46672,5.77549 8.65412,14.46064 5.27418,20.94139 -2.04644,3.92388 -1.89239,4.63569 1.00328,4.63569 3.55906,0 9.86879,-6.09853 12.40182,-11.98671 2.61201,-6.07178 4.32239,-18.11052 3.90889,-27.51329 l -0.30783,-7 -10,-0.088 c -18.19791,-0.16017 -29.86221,-4.23622 -40.66787,-14.21127 -27.7408,-25.60841 -25.37324,-65.49927 5.89172,-99.26916 3.10084,-3.34928 10.99705,-10.39136 17.54713,-15.64907 10.85026,-8.70944 11.854,-9.79169 11.28817,-12.17098 C 229.21757,97.675179 228.67209,88.175 228.34697,78 227.02351,36.57999 234.68055,8.0099748 248.77605,1.7748649 259.41146,-2.9296817 271.83821,4.1747718 277.15624,18 c 2.64464,6.875228 3.57098,23.324285 1.91424,33.99132 -3.30675,21.290814 -15.35257,45.268975 -31.5071,62.71736 -6.03227,6.5154 -6.55952,7.44115 -6.51563,11.44019 0.0662,6.03279 2.45935,24.69156 3.271,25.50321 0.36641,0.36642 4.15709,0.75674 8.42373,0.86738 17.73202,0.45982 33.23219,13.29858 38.20529,31.64537 1.80694,6.66615 0.9251,20.01369 -1.77817,26.91452 -4.06482,10.37658 -14.02024,19.01388 -28.12994,24.40549 L 254,238.17485 l -0.0148,12.16257 c -0.0363,29.85401 -10.53093,45.36891 -31.31247,46.29119 -3.94501,0.17508 -8.29775,-0.0519 -9.67275,-0.50431 z m 29.93545,-67.06324 c 1.23453,-0.78119 1.03071,-4.5709 -1.4562,-27.07555 -1.5904,-14.39198 -3.41991,-26.88968 -4.06557,-27.77267 -1.05354,-1.4408 -1.85689,-1.2692 -7.83426,1.67345 -9.7129,4.78164 -12.08645,8.7275 -12.05749,20.04468 0.0177,6.90659 0.45419,9.38583 2.25,12.77919 2.71797,5.13588 2.72469,5.28984 0.23095,5.28984 -3.13064,0 -9.69488,-6.63159 -11.69361,-11.81358 -2.32992,-6.04066 -2.29514,-16.07176 0.0798,-23.0129 2.5685,-7.50689 11.51832,-16.86877 20.22293,-21.15404 l 6.66301,-3.28019 -0.65432,-8.51258 c -0.83612,-10.87757 -1.45507,-13.22895 -3.4791,-13.2171 -5.32991,0.0312 -31.80325,24.77577 -36.36513,33.99039 -9.37469,18.9361 -6.93819,39.63176 6.01029,51.05152 5.32962,4.70039 12.57357,8.66504 19.21325,10.51551 5.28028,1.4716 20.86021,1.80719 22.93545,0.49403 z m 23.74572,-15.36667 c 1.74964,-2.59288 3.69153,-7.17272 4.31531,-10.17744 2.52368,-12.15649 -2.06081,-21.77756 -12.99648,-27.27455 -3.575,-1.79704 -7.4,-3.14923 -8.5,-3.00487 -1.75782,0.23069 -1.97283,0.92846 -1.77564,5.76247 0.36334,8.90711 4.32098,41.29624 5.35587,43.83212 l 0.95173,2.33212 4.73402,-3.37777 c 2.60371,-1.85777 6.16555,-5.49921 7.91519,-8.09208 z M 245.92472,86.25 C 252.40763,77.642685 259.19148,64.551177 262.02394,55.18165 266.17124,41.462774 263.07492,31.6 254.62072,31.6 c -4.2633,0 -6.14222,1.518069 -9.08127,7.337186 -4.0461,8.011013 -7.53625,30.146921 -7.53861,47.812814 -0.001,8.237449 1.41002,8.148406 7.92388,-0.5 z m -2.34916,-11.127747 c -1.31761,-2.131936 -1.02069,-10.229113 0.40746,-11.111761 1.58437,-0.979189 6.97375,-0.244054 8.50541,1.160175 1.56041,1.430582 -3.54321,10.265888 -6.14407,10.636519 -1.1856,0.168952 -2.43156,-0.139268 -2.7688,-0.684933 z m 17.0729,181.192867 C 260.29181,255.95847 260,253.70702 260,251.31189 c 0,-3.81376 0.34164,-4.49325 2.75,-5.46948 9.43048,-3.82265 20.44202,-9.52272 25.67838,-13.29229 C 309.7366,217.21067 322.42193,193.26148 323.67843,166 325.13423,134.41443 310.055,105.16367 283.75,88.546648 279.4875,85.854001 276,83.265014 276,82.793344 276,80.57758 279.04724,75 280.2578,75 c 2.0735,0 12.22482,6.38409 19.4825,12.252408 13.99879,11.318945 26.99601,31.854412 31.99405,50.550242 3.5409,13.24524 3.76581,34.41818 0.49835,46.91598 -7.13643,27.29636 -24.05481,49.57707 -47.67569,62.78661 -9.94867,5.56362 -22.52183,10.19661 -23.90855,8.80988 z M 145.73494,217.22696 c -5.34666,-5.4416 -11.17296,-17.09231 -15.36875,-30.73246 -2.6096,-8.4836 -2.76958,-10.10212 -2.81647,-28.4945 -0.048,-18.82811 0.0635,-19.94717 3.23711,-32.47804 1.80776,-7.13793 4.84526,-16.60644 6.75,-21.04115 1.90474,-4.4347 3.46317,-8.545717 3.46317,-9.135589 0,-1.677505 -5.09218,-6.351602 -9.20639,-8.450516 -6.26423,-3.195769 -14.3689,-4.809437 -34.760787,-6.920996 C 73.452731,77.532016 68.781754,76.76245 54.145867,72.907881 42.987559,69.969181 29.93304,64.215783 23.01129,59.186225 14.595406,53.070983 2.6091384,40 5.4172629,40 5.6467576,40 10.934258,42.678166 17.167263,45.951481 40.006406,57.945647 59.147617,63.504916 93,67.97593 c 39.62398,5.233291 48.83704,8.220702 59.90037,19.423185 l 5.23077,5.29657 -5.70379,7.902155 c -11.29022,15.64171 -17.66082,33.44711 -18.99167,53.08042 -1.27635,18.82924 3.3608,40.24281 12.62105,58.28189 2.67097,5.20308 4.73624,9.58021 4.5895,9.72696 -0.14675,0.14674 -2.35682,-1.86033 -4.91129,-4.46015 z M 323,221.62115 c 0,-0.20836 1.55498,-2.96114 3.45551,-6.11728 4.81038,-7.98842 9.12036,-18.71172 11.71422,-29.14515 3.16227,-12.71976 3.21975,-39.1411 0.11082,-50.94284 C 334.42956,120.7972 328.45282,108.44034 320.34377,98.331703 318.5047,96.03914 317,93.496794 317,92.682046 c 0,-2.065786 9.63032,-10.639168 15.56886,-13.860161 7.41866,-4.02379 17.93745,-6.582187 38.43114,-9.347283 47.82741,-6.453079 67.8105,-12.386381 94.60759,-28.090521 2.46551,-1.444888 4.75146,-2.358365 5.07988,-2.029947 0.89693,0.896932 -8.35115,11.33351 -13.99848,15.797471 C 438.89949,69.213399 418.2397,75.861429 381,79.507268 c -27.92132,2.733551 -38.06237,5.307987 -44.25,11.233438 -3.1198,2.987607 -3.45861,5.988308 -1.17481,10.404704 2.80232,5.41909 7.50802,20.94011 9.6358,31.78218 3.16673,16.13605 2.92878,37.24365 -0.5701,50.57241 -3.06704,11.68368 -10.8242,28.18636 -16.09937,34.25 C 325.39344,221.36861 323,223.0406 323,221.62115 Z M 116,190.92095 C 103.4311,187.3391 76.317212,172.17366 78.639735,170.02447 79.67577,169.06575 104.87745,170.47039 114,171.9953 c 7.01027,1.17183 9,2.7349 9,7.0701 0,1.47573 0.68766,4.63219 1.52814,7.01435 1.62116,4.59487 1.35806,6.99309 -0.74676,6.8069 -0.70476,-0.0623 -4.20638,-0.94691 -7.78138,-1.9657 z m 232.60199,1.24408 c -0.32362,-0.52364 0.0195,-2.68749 0.76256,-4.80855 0.74304,-2.12106 1.67099,-6.01691 2.06213,-8.65743 0.90223,-6.09096 1.39497,-6.28179 19.72839,-7.64043 7.88971,-0.58468 16.93243,-1.33124 20.09493,-1.65903 3.88976,-0.40316 5.75,-0.23856 5.75,0.50878 0,1.43906 -12.44241,9.45401 -22.04867,14.20297 -11.74302,5.80528 -25.19737,9.91761 -26.34934,8.05369 z M 105,163.88859 C 68.510072,160.67944 67.032684,160.22184 55.25,148.47914 50.7125,143.95704 47,139.74929 47,139.12857 c 0,-1.3754 4.869582,-1.44311 13.808447,-0.19201 3.680354,0.51511 13.891553,1.43359 22.691553,2.04107 19.42196,1.34074 30.9193,2.84028 35.24185,4.59642 l 3.24184,1.31708 -0.57607,7.80444 c -0.31684,4.29244 -0.74905,8.36693 -0.96046,9.05443 -0.41974,1.36496 -1.40237,1.37378 -15.44716,0.13859 z m 248.75,0.54464 c -0.4125,-0.42161 -0.75,-4.72041 -0.75,-9.55289 v -8.78633 l 3.75,-1.04005 c 5.28806,-1.46662 16.65209,-2.7818 39.58247,-4.58094 10.90785,-0.85584 22.10677,-1.98738 24.88649,-2.51454 8.76084,-1.66146 8.78709,-1.39743 0.78352,7.87872 -10.88842,12.61969 -17.57887,15.31461 -42.50248,17.12007 -8.25,0.59763 -17.25,1.34668 -20,1.66456 -2.75,0.31789 -5.3375,0.23302 -5.75,-0.1886 z M 116,136.9196 c -1.925,-0.4934 -14.975,-1.79018 -29,-2.88172 -14.025,-1.09154 -27.899735,-2.44202 -30.832744,-3.00106 -11.238579,-2.14211 -18.102024,-6.77402 -24.341021,-16.42696 -4.458319,-6.89789 -4.89047,-9.14652 -1.576235,-8.20169 10.231022,2.91669 14.838913,3.82614 25.75,5.08221 6.875,0.79144 19.25,1.92565 27.5,2.52045 18.33776,1.3221 31.42961,3.4221 37.17317,5.96275 4.03828,1.78632 4.3217,2.1678 4.24998,5.72019 -0.10872,5.3844 -2.21661,11.76021 -3.95296,11.95663 -0.8086,0.0915 -3.04519,-0.23739 -4.97019,-0.7308 z m 235.6458,0.31631 c -0.91181,-1.47533 -2.76886,-13.47283 -2.28186,-14.74193 1.17782,-3.06935 18.25034,-6.95447 35.13606,-7.99578 28.82393,-1.77751 49.9776,-4.70489 58.42635,-8.08541 2.28614,-0.91473 4.42455,-1.39523 4.75201,-1.06777 0.97747,0.97748 -7.52466,13.25858 -12.09587,17.47218 -7.7489,7.14268 -16.32968,9.08172 -49.58249,11.20435 -9.625,0.61439 -20.81063,1.76088 -24.85696,2.54776 -8.53056,1.65891 -8.86926,1.68269 -9.49724,0.6666 z m -226.81,-23.73344 c -0.31167,-0.31167 -3.50745,-1.40766 -7.10173,-2.43553 C 110.63726,109.03743 98.606819,107.57235 76,105.98451 57.831987,104.70843 44.475324,102.72201 35.65084,99.98372 27.627276,97.49396 22.193271,92.987325 17.166784,84.654162 13.380916,78.377761 6.7134566,58.919267 7.926357,57.686652 c 0.4401864,-0.447341 3.78138,1.442994 7.424874,4.200745 18.141305,13.731106 32.824959,18.628768 64.879165,21.640132 21.730754,2.041517 32.347294,3.355902 37.769604,4.676085 5.50667,1.34072 15.92074,6.425609 16.55615,8.083889 0.70305,1.834788 -6.05378,17.171107 -7.7088,17.497067 -0.79468,0.15651 -1.69988,0.0296 -2.01155,-0.2821 z M 345.34648,112.25 c -0.32492,-0.9625 -1.97648,-4.83972 -3.67015,-8.61605 -3.02147,-6.736908 -3.04268,-6.89356 -1.12786,-8.328285 C 349.05266,88.933702 359.50506,86.538679 390,83.974529 424.59747,81.06542 443.27506,74.906589 459.94372,60.910986 466.28742,55.584585 467,55.22049 467,57.305552 c 0,3.303155 -5.16,18.115853 -8.77648,25.194448 -5.87906,11.507192 -13.55848,16.882114 -28.35536,19.84629 -7.22863,1.44807 -13.17905,2.07574 -49.35354,5.20597 -13.22989,1.1448 -19.91178,2.20297 -25.27106,4.00202 -8.68701,2.91614 -9.13686,2.94776 -9.89708,0.69572 z"
       id="path58"
       inkscape:connector-curvature="0" />
    <path
       style="fill:#807d7e"
       d="M 211.73707,295.27357 C 201.61544,291.50458 196.06091,284.16038 196.0257,274.5 c -0.0299,-8.19774 5.36381,-14.52838 13.7243,-16.10838 1.7875,-0.33781 3.25,-0.95482 3.25,-1.37114 0,-0.41631 -2.8125,-1.54398 -6.25,-2.50593 -16.97636,-4.75067 -37.1506,-19.38221 -48.27269,-35.01019 -38.50432,-54.10359 -14.59812,-128.535588 48.13648,-149.873001 3.88039,-1.319808 8.92973,-2.716339 11.22074,-3.103402 L 222,65.824204 v 4.966325 4.966324 l -6.64058,1.66806 c -38.29217,9.618685 -65.28907,44.410767 -65.34628,84.214617 -0.0341,23.74007 7.88744,43.83335 23.91296,60.65591 15.77625,16.5609 33.27004,24.70309 58.5739,27.26226 3.85,0.38938 7.24784,1.09218 7.55076,1.56177 0.30292,0.46959 0.36573,2.43872 0.13958,4.37583 -0.51903,4.44587 -3.06918,5.24124 -11.7037,3.65027 -9.96776,-1.83663 -10.29475,-1.64243 -5.22708,3.10443 5.7721,5.40669 7.68638,10.98315 5.86501,17.08526 -2.71789,9.10576 -2.72146,9.03137 0.39599,8.24894 5.73618,-1.43969 11.62959,-8.10999 13.93576,-15.77281 1.81089,-6.01714 3.6157,-23.59272 2.88505,-28.09519 -0.33168,-2.04391 -1.10668,-3.76124 -1.72221,-3.81628 -0.61554,-0.0551 -4.71916,-0.0231 -9.11916,0.0709 -27.49751,0.58787 -48.28575,-13.95802 -57.12432,-39.97087 -2.90982,-8.56392 -2.6451,-27.22788 0.51771,-36.5 7.05878,-20.6936 19.24543,-36.35157 41.84462,-53.76388 l 9.39165,-7.23612 -0.5509,-5 c -3.4351,-31.177608 -0.0643,-66.028256 8.04397,-83.167844 2.85041,-6.0252714 9.9693,-12.8005616 14.37569,-13.6818409 10.51644,-2.1032862 21.52227,6.5379694 25.76029,20.2257409 2.61398,8.44251 2.30225,27.980552 -0.62146,38.951099 -5.72568,21.484297 -15.26078,38.927683 -29.43689,53.851445 l -7.05261,7.42456 0.21104,6.69842 c 0.11608,3.68413 0.75784,10.74842 1.42613,15.69842 l 1.21508,9 7.24514,0.17084 c 11.7116,0.27617 21.10114,4.2378 28.95527,12.2168 5.65192,5.74177 8.58864,11.17572 10.88584,20.14257 5.49321,21.4421 -6.35991,41.6139 -29.36697,49.97709 -3.45439,1.2557 -6.545,2.7107 -6.86801,3.23335 -0.32302,0.52265 -0.51549,5.51981 -0.42771,11.10481 0.44948,28.60042 -10.79978,45.87188 -30.7713,47.24449 -4.82969,0.33194 -7.9572,-0.0287 -11.41519,-1.31638 z m 31.74695,-66.37778 c 1.13047,-1.17138 0.96374,-4.69164 -1.03704,-21.89579 -1.31124,-11.275 -2.68941,-23.35202 -3.06262,-26.83783 -0.42618,-3.98062 -1.19575,-6.5363 -2.06916,-6.87146 -2.58257,-0.99102 -10.78822,2.96978 -14.88853,7.18659 -6.96538,7.16326 -8.03987,16.49756 -3.20048,27.80313 1.12545,2.62924 1.80179,5.02492 1.50298,5.32374 -0.75394,0.75393 -5.87814,-2.00631 -7.92655,-4.26977 -5.99383,-6.62312 -7.61214,-20.423 -3.63999,-31.03951 2.88899,-7.72152 10.98408,-15.83133 20.18618,-20.22289 l 6.84881,-3.26848 -0.57149,-4.15176 c -0.31432,-2.28347 -0.86067,-6.90916 -1.21412,-10.27933 -0.90648,-8.64332 -1.48327,-9.29631 -5.95445,-6.74105 -6.22715,3.55879 -21.50952,16.58588 -26.61778,22.68967 -10.27694,12.27979 -14.86795,27.1916 -12.67572,41.1713 2.31589,14.76826 15.46898,27.68053 32.6086,32.01155 6.97378,1.76222 19.76972,1.40382 21.71136,-0.60811 z m 19.01436,-10.20898 c 4.95734,-4.95735 6.65557,-7.46611 7.9074,-11.6815 3.02317,-10.18012 1.64336,-18.7314 -4.03699,-25.01886 C 262.38048,177.57186 253.95295,173 249.80366,173 247.25402,173 247,173.32448 247,176.58129 c 0,3.90851 4.81636,45.1414 5.50972,47.16871 0.88071,2.57512 3.86107,1.0644 9.98866,-5.06319 z M 248.97377,82.5 C 258.37972,68.621322 264,54.547245 264,44.871901 c 0,-6.982545 -1.47404,-10.548556 -5.14503,-12.446897 -9.75499,-5.044506 -16.08709,4.55157 -19.3936,29.390357 -1.47996,11.117627 -1.95926,30.353415 -0.78556,31.527119 1.06313,1.063122 5.13412,-3.223137 10.29796,-10.84248 z m -5.54133,-7.815459 c -0.30724,-0.800653 -0.41773,-3.419715 -0.24553,-5.820137 0.28947,-4.035207 0.53937,-4.386584 3.31309,-4.658457 1.65,-0.16173 3.74855,0.28827 4.66345,1 1.53908,1.197305 1.501,1.630487 -0.50934,5.794053 -2.25412,4.668448 -6.09259,6.626862 -7.22167,3.684541 z m 16.75702,176.796349 c 0.30994,-4.7911 0.32028,-4.80375 5.31054,-6.4959 12.61166,-4.27648 24.09699,-11.7354 34.06491,-22.12278 C 316.61127,205.09851 324,186.80726 324,162.37166 324,144.62294 320.38858,131.06902 311.77756,116.5 306.65866,107.83931 291.76084,92.760496 283.25,87.625854 279.13573,85.143693 277,83.212579 277,81.974649 277,79.575655 279.06479,75 280.14736,75 c 2.38715,0 16.04724,9.431711 22.98155,15.867789 9.8028,9.098465 15.26756,16.656951 21.81549,30.173701 7.40427,15.28447 9.36852,25.25598 8.75771,44.45851 -0.52736,16.57915 -2.20291,24.22188 -8.11606,37.02014 -10.26749,22.22262 -30.00197,41.01374 -52.702,50.18268 -3.34148,1.34969 -7.6346,2.707 -9.54027,3.01624 l -3.46485,0.56227 z M 325,219.73059 c 0,-0.36396 1.55359,-3.48973 3.45241,-6.94617 6.93854,-12.6302 10.54918,-24.87001 12.62821,-42.80869 2.81051,-24.25019 -5.10604,-52.17019 -20.23267,-71.356358 C 318.73158,95.935026 317,93.257958 317,92.670332 c 0,-1.958312 9.76218,-10.265964 15.66965,-13.334929 8.8343,-4.589473 18.8,-6.968199 41.33035,-9.865193 38.39054,-4.936326 56.83947,-9.97996 80.94663,-22.129473 7.94565,-4.004443 14.67185,-7.055586 14.94712,-6.780318 0.27527,0.275269 -3.52571,4.424284 -8.44663,9.220035 C 442.8441,67.910299 424.87309,74.32177 378,79.551676 c -28.92747,3.227608 -35.40215,5.004316 -41.89388,11.496051 -3.64062,3.640617 -3.76752,4.735507 -1.1447,9.876653 4.07988,7.99722 8.28547,22.56706 10.4823,36.31485 2.86153,17.90752 1.66452,38.52423 -3.09233,53.26077 -2.77505,8.597 -10.43114,23.18497 -13.9662,26.61128 C 326.52334,218.91586 325,220.09455 325,219.73059 Z m -179.99196,-3.49866 c -5.47813,-6.00567 -11.12428,-18.42839 -15.18252,-33.40477 -3.31437,-12.23125 -3.30257,-36.90132 0.0248,-51.82716 2.5946,-11.63887 6.36701,-23.54171 9.25767,-29.21016 2.77305,-5.437817 2.4198,-8.11926 -1.52602,-11.583733 C 130.95948,84.391492 120.69751,81.901425 91.5,79.024321 60.074394,75.927662 40.823848,70.317004 24.479302,59.490838 14.388833,52.807195 2.9497353,41 6.5649293,41 6.8756404,41 11.26314,43.221155 16.314929,45.935899 39.809863,58.561674 59.846784,64.161252 100.5,69.462513 c 22.42629,2.924433 31.78897,5.140175 40.67568,9.62617 10.35373,5.226545 18.43022,14.182748 14.80828,16.42123 -1.85051,1.14368 -11.14113,15.600547 -14.03969,21.846767 -10.22179,22.02732 -11.73862,51.63821 -3.90048,76.14332 1.75922,5.5 4.94907,13.4875 7.08855,17.75 4.07818,8.12495 4.04262,9.55012 -0.1243,4.98193 z M 113.5,189.61863 C 101.73136,185.76542 79,173.34689 79,170.77069 c 0,-2.04346 39.52783,1.32478 41.60951,3.54563 1.0384,1.10781 4.39887,13.67861 4.3931,16.43368 -0.004,1.81843 -3.56216,1.46844 -11.50261,-1.13137 z m 235.5,1.03059 c 0,-0.74292 0.48263,-2.73525 1.07251,-4.42738 0.58988,-1.69213 1.38196,-5.23989 1.76017,-7.88391 0.66678,-4.6614 0.80875,-4.82891 4.67749,-5.51894 2.1944,-0.3914 11.18983,-1.19393 19.98983,-1.78341 8.8,-0.58947 16.7875,-1.31895 17.75,-1.62106 1.06303,-0.33367 1.74231,-0.0322 1.73041,0.76809 -0.0108,0.72457 -3.76076,3.66505 -8.33331,6.53442 C 371.02652,187.1468 349,195.08731 349,190.64922 Z m 4.99651,-27.65574 c -0.59593,-1.1135 -0.95143,-5.26172 -0.79001,-9.21828 l 0.2935,-7.19374 4.28735,-1.23806 c 4.76556,-1.37615 16.66712,-2.74859 37.71265,-4.34886 7.7,-0.5855 17.71471,-1.57158 22.25492,-2.19129 4.54021,-0.61971 8.5418,-0.83986 8.89243,-0.48923 1.01257,1.01257 -8.38057,11.8192 -13.83876,15.92123 -5.62866,4.23014 -12.26795,6.50115 -21.19252,7.24901 -3.36384,0.28188 -11.96607,0.97991 -19.11607,1.55117 -7.15,0.57125 -13.9945,1.25103 -15.20999,1.51062 -1.51457,0.32345 -2.55095,-0.1651 -3.2935,-1.55257 z M 95.5,162.82042 C 71.701242,161.05468 63.232487,157.7482 53.116792,146.27258 46.434379,138.69181 46.454249,137.51886 53.25,138.4094 c 7.690075,1.00774 22.333705,2.38292 38.25,3.59206 15.154,1.15123 24.89294,2.60329 27.76332,4.13947 1.56723,0.83875 1.77612,2.0932 1.52621,9.16541 L 120.5,163.5 114,163.60538 c -3.575,0.058 -11.9,-0.29528 -18.5,-0.78496 z m 19.60374,-26.40627 c -2.96794,-0.69521 -12.86794,-1.76601 -21.999996,-2.37956 -35.949323,-2.4153 -43.234892,-3.69909 -51.296661,-9.03898 -4.87814,-3.23115 -14.526178,-16.02307 -13.426759,-17.80197 0.382598,-0.61906 2.77613,-0.31275 6.421235,0.82173 7.611013,2.36881 23.853176,4.60437 43.698441,6.01462 21.459824,1.52499 33.82518,3.32829 40.75,5.94278 6.36599,2.4035 6.54801,2.83044 4.619,10.83441 -1.59916,6.63532 -2.34319,7.11126 -8.76526,5.60697 z m 237.13922,0.21679 c -0.40035,-0.62202 -1.28198,-3.79907 -1.95918,-7.06011 -1.5176,-7.308 -1.08653,-7.93366 7.23765,-10.50473 6.84135,-2.11308 16.36384,-3.31726 43.97857,-5.56139 20.6113,-1.67498 33.33392,-3.68982 40.50507,-6.41464 6.09388,-2.31549 6.28034,-1.5056 1.36374,5.92328 -5.4137,8.18 -8.98203,11.54012 -15.23173,14.34302 -7.21036,3.23374 -13.67101,4.21361 -40.44416,6.13407 -11.9939,0.86034 -24.71295,2.17337 -28.26457,2.91785 -4.76222,0.99824 -6.64857,1.0567 -7.18539,0.22265 z M 119.5,111.28707 C 114.52138,109.58133 107.73532,108.46598 96,107.42463 45.757256,102.96626 37.024236,101.5484 28.294007,96.432148 23.679691,93.727979 19.336227,88.481862 15.517131,81 12.697534,75.476221 7.6497273,59.550818 8.1975518,57.907345 c 0.251621,-0.754863 1.6795725,-0.09463 3.8511722,1.780645 6.289202,5.431011 16.280243,11.636017 23.93192,14.863086 C 49.222085,80.13561 60.543351,82.251523 92,85.02094 c 18.21319,1.603474 28.41293,3.672298 35.75525,7.252275 7.21404,3.517428 8.12275,4.723432 6.01623,7.984505 -0.79663,1.23325 -2.25481,4.37339 -3.24039,6.97809 -0.98558,2.6047 -2.29577,5.1214 -2.91153,5.59267 -0.66232,0.50691 -3.97846,-0.12262 -8.11956,-1.54141 z m 226.86534,1.5311 c -1.96031,-3.08737 -5.61326,-12.5139 -5.73412,-14.797015 -0.10585,-1.999512 0.83212,-3.002457 4.85063,-5.186666 6.94328,-3.77393 14.56125,-5.479207 32.51815,-7.279167 31.6192,-3.169438 35.71214,-3.722424 45.34632,-6.126623 15.63729,-3.90227 28.99899,-10.780364 38.38271,-19.757962 2.32597,-2.225301 4.5678,-3.707244 4.98183,-3.293208 0.87499,0.874991 -4.39617,16.791126 -8.27189,24.976788 -3.73637,7.891315 -9.39888,13.951961 -15.47937,16.567716 -10.17691,4.377987 -19.77051,5.779877 -62.9596,9.200097 -12.73823,1.00876 -24.3539,3.3582 -31.14885,6.30029 -0.97266,0.42115 -1.99209,0.17335 -2.48581,-0.60425 z"
       id="path56"
       inkscape:connector-curvature="0" />
    <path
       style="fill:#716e6f"
       d="m 214.33198,296.09918 c -5.35718,-1.37488 -12.24902,-6.0167 -14.91542,-10.0459 -3.78456,-5.71886 -4.35117,-13.61806 -1.35874,-18.94237 C 200.38557,262.96923 208.09695,258 212.19634,258 c 4.00994,0 1.33148,-1.64849 -6.94851,-4.27656 -18.78361,-5.9619 -36.92412,-19.98614 -49.12666,-37.9793 -4.63946,-6.84108 -9.62715,-17.87518 -12.76707,-28.24414 -2.49972,-8.25484 -2.72341,-10.36613 -2.70175,-25.5 0.0214,-14.97533 0.2701,-17.31169 2.69113,-25.28408 10.08015,-33.19373 32.74473,-56.88624 64.15652,-67.066276 4.4,-1.425967 9.35,-2.717987 11,-2.871155 2.92564,-0.271587 3,-0.168187 3,4.171816 v 4.450305 l -9.14904,2.652432 C 193.92078,83.396202 178.02012,94.582739 166.2305,110.5 c -15.47537,20.89343 -20.35143,47.57409 -13.70673,75 2.14616,8.85828 10.64107,24.97726 17.55251,33.30568 9.56014,11.52015 24.32794,21.52774 39.21458,26.57425 C 215.38672,247.4464 229.94539,250 235.63099,250 H 240 v 3.96482 c 0,5.62089 -2.28417,6.67801 -10.92299,5.05522 -3.61735,-0.67952 -7.70201,-1.07451 -9.07701,-0.87776 -2.42449,0.34692 -2.38826,0.4272 1.19959,2.65813 7.58112,4.71393 10.39225,14.41894 6.39115,22.06449 -3.65898,6.9918 3.28709,6.70772 10.1104,-0.41348 2.73017,-2.84936 4.7682,-6.23541 5.81927,-9.66827 2.104,-6.87189 3.80197,-25.76518 2.69672,-30.00656 l -0.85384,-3.27659 -8.43165,0.33226 C 208.7206,240.94393 187.599,226.21337 178.38381,199 c -2.55944,-7.55828 -2.53957,-25.08804 0.038,-33.5 6.24135,-20.36902 20.55542,-38.98598 43.25383,-56.25617 l 8.17562,-6.22046 -0.55734,-22.261686 c -1.1551,-46.137799 5.32582,-71.558261 20.0625,-78.6921645 6.85145,-3.3167287 15.43399,-0.6371725 21.80713,6.8084085 6.44258,7.526716 9.34383,21.664201 7.72447,37.640599 -2.50921,24.755474 -13.35036,47.661894 -32.3624,68.378963 -4.0086,4.36809 -6.52224,7.97706 -6.5169,9.35666 0.02,5.17081 3.00671,27.16125 3.79623,27.95077 0.47181,0.47181 4.64622,0.98273 9.27646,1.13537 9.95609,0.32823 16.77028,3.02379 24.07762,9.52467 9.55243,8.49818 14.16068,18.91613 14.21453,32.13504 0.0696,17.08338 -8.17587,29.50094 -24.94474,37.56644 C 262.50253,234.4549 258.582,236 257.7165,236 c -3.69023,0 -4.67791,2.68859 -4.03767,10.99104 1.64542,21.33741 -6.15234,40.30312 -19.0864,46.42191 -5.95302,2.81623 -15.0528,4.02272 -20.26045,2.68623 z m 29.66378,-66.69379 c 0.79133,-0.79216 0.25198,-8.48648 -1.95196,-27.84681 -1.67499,-14.7137 -3.29662,-27.15863 -3.60363,-27.65539 -0.87227,-1.41136 -3.88694,-1.07087 -8.60726,0.97214 -12.39204,5.3634 -16.68139,17.18621 -11.45703,31.57918 2.22868,6.13994 2.26264,6.54549 0.54814,6.54549 -1.00526,0 -3.43511,-1.65505 -5.39966,-3.67788 -7.54365,-7.76745 -8.63839,-22.69965 -2.50752,-34.20234 3.79777,-7.12534 9.64126,-12.42943 18.73316,-17.00394 7.08461,-3.56456 6.84907,-2.80909 5.10817,-16.38393 -0.69233,-5.39849 -1.64574,-9.0969 -2.42186,-9.39472 -1.86348,-0.71509 -4.87814,1.10965 -14.6587,8.87273 -17.75018,14.08877 -25.41365,25.03785 -28.50417,40.72491 -1.90546,9.67183 -1.01198,17.81966 2.83068,25.81356 4.48474,9.32963 16.22025,18.2785 28.58363,21.79633 5.58935,1.59038 21.67618,1.49421 23.30801,-0.13933 z M 259.79053,221.75 c 8.40468,-6.70807 12.16555,-14.05016 12.16555,-23.75 0,-10.77774 -4.23648,-17.59606 -13.95608,-22.46135 -6.13023,-3.06857 -9.55339,-3.79397 -10.75461,-2.27898 -1.03134,1.30073 -0.80727,3.96161 2.83456,33.66149 1.10747,9.03163 2.24409,16.79413 2.52583,17.25 0.9612,1.55524 3.10981,0.83119 7.18475,-2.42116 z M 243.56084,90.231974 C 253.84685,77.690601 262.72927,59.453104 264.37308,47.5 265.65412,38.184788 261.28767,31 254.34545,31 c -9.06985,0 -14.03694,13.455184 -16.34283,44.270497 -1.44841,19.356174 -0.38776,22.2112 5.55822,14.961477 z M 244.2,74.8 c -1.38881,-1.388815 -1.57916,-7.652989 -0.29419,-9.681834 C 245.09996,63.232711 252,64.491642 252,66.594973 c 0,1.911009 -2.92701,7.672107 -4.38953,8.639714 C 246.08014,76.247154 245.5839,76.183905 244.2,74.8 Z m 16.46667,180.53333 c -1.15267,-1.15266 -0.72418,-7.04547 0.58333,-8.02242 0.6875,-0.51369 4.625,-2.25089 8.75,-3.86045 14.55292,-5.67847 30.10577,-18.02314 39.00722,-30.96095 4.76334,-6.92329 10.75245,-20.16624 13.11046,-28.98951 3.06519,-11.46938 3.0958,-30.74742 0.0673,-42.38089 -6.03054,-23.16535 -20.96203,-43.286019 -40.52987,-54.615296 -4.46034,-2.582428 -4.79719,-3.043485 -4.24406,-5.809129 1.04383,-5.219146 2.26021,-5.903037 6.57976,-3.699367 2.08729,1.064857 7.41785,4.665943 11.84568,8.002414 17.04974,12.847367 29.8284,31.987878 35.38556,53.002268 3.16765,11.97844 3.16868,36.73518 0.002,48.22405 -8.53924,30.9809 -29.92774,54.93958 -59.55119,66.70727 -7.91858,3.1456 -9.8427,3.56552 -11.00621,2.40201 z m 65.34538,-36.90902 c 0.007,-0.50837 1.18178,-2.94931 2.61146,-5.42431 3.97169,-6.87561 8.97404,-20.54706 10.97694,-30 2.49033,-11.75346 2.49765,-33.6163 0.0149,-44.5 -3.4884,-15.29211 -10.63621,-30.4785 -19.4372,-41.296632 l -3.49549,-4.296631 5.90868,-5.728774 c 9.72654,-9.430398 21.01012,-13.53517 45.90867,-16.700777 19.46061,-2.474226 37.03497,-5.378966 46,-7.603012 18.11646,-4.494334 39.48981,-13.347038 52.25,-21.641614 3.81689,-2.481112 2.5166,0.314557 -2.90572,6.24745 -9.64874,10.557255 -24.60739,19.429847 -40.55596,24.055418 -10.70261,3.104082 -27.62708,5.888213 -48.28832,7.943588 -23.62299,2.35001 -34.91203,5.779808 -39.90135,12.122698 -2.60028,3.305717 -2.64815,5.764311 -0.19046,9.780256 2.93856,4.80169 7.84612,21.82846 10.07852,34.9674 4.52061,26.6064 1.26947,49.01463 -10.2887,70.9139 -3.71731,7.0432 -8.71601,13.46628 -8.68596,11.16104 z m -182.22749,-4.18474 c -4.81757,-5.13617 -11.50004,-21.21213 -14.4341,-34.724 -2.12547,-9.78819 -2.04129,-33.36538 0.16072,-45.01557 2.27722,-12.04804 5.67168,-23.50913 9.46224,-31.94834 3.10349,-6.909564 3.11036,-6.962588 1.22951,-9.500003 C 134.92503,85.931345 123.71651,81.911206 103.67605,79.95064 60.330529,75.710129 41.283814,70.695491 23.878109,58.941357 16.689167,54.08664 5.1016613,42.799446 6.7445268,42.251824 7.3362439,42.054585 12.923291,44.453635 19.160188,47.583046 42.373455,59.230482 60.554754,64.485473 91.5,68.491621 c 24.40677,3.159681 33.18883,4.720235 40.91722,7.270903 8.99723,2.969437 18.40487,8.826598 22.22813,13.839147 2.27946,2.988535 2.42865,3.630808 1.22509,5.274201 -14.71224,20.088798 -20.35349,33.700558 -22.87868,55.203968 -2.12454,18.09156 1.88368,40.04758 10.70285,58.62755 1.93521,4.07703 3.32529,7.60605 3.08907,7.84226 -0.23622,0.23622 -1.58582,-0.80332 -2.99912,-2.31008 z M 114,189.60853 c -13.25997,-4.63922 -32.181177,-14.8566 -34.519773,-18.64052 -1.120254,-1.81261 36.824433,1.03758 40.471173,3.03997 0.79827,0.43832 1.97821,3.20334 2.62209,6.14448 0.64388,2.94115 1.5095,6.81004 1.9236,8.59754 0.68907,2.97442 0.55152,3.24503 -1.62209,3.19134 -1.30625,-0.0323 -5.3,-1.08203 -8.875,-2.33281 z M 349.42264,189.75 c 0.36074,-1.2375 1.13814,-4.725 1.72755,-7.75 1.51951,-7.79856 2.00846,-8.41979 7.21594,-9.16821 7.14996,-1.0276 36.84584,-2.95315 37.37548,-2.42352 0.65946,0.65946 -12.27454,8.82778 -20.68379,13.06261 C 367.53641,187.2586 354.0267,192 350.75572,192 c -1.59032,0 -1.85752,-0.45098 -1.33308,-2.25 z M 95.503062,162.42078 c -19.445435,-1.6286 -24.428945,-2.70449 -31.375482,-6.77368 -5.848593,-3.42604 -16.802798,-15.37188 -15.390707,-16.78397 0.490968,-0.49097 3.235229,-0.45221 6.315676,0.0892 2.996098,0.52659 14.447451,1.65818 25.447451,2.51464 22.17005,1.72616 34.51793,3.20915 38.1184,4.57805 2.6179,0.99532 2.89563,3.03073 1.73362,12.70498 l -0.6306,5.25 -4.11071,-0.11972 c -2.26089,-0.0659 -11.30933,-0.72262 -20.107648,-1.4595 z m 258.159898,-6.63552 c -0.34841,-4.51811 -0.28847,-8.55975 0.13321,-8.98143 1.28655,-1.28655 19.49411,-3.72929 43.70383,-5.86334 12.65,-1.11508 24.4625,-2.28393 26.25,-2.59745 1.7875,-0.31352 3.25,-0.16375 3.25,0.33283 0,0.49658 -2.86773,4.04497 -6.37273,7.88531 -6.79958,7.45011 -13.41572,11.71063 -20.73129,13.35008 C 395.8178,160.8252 362.19023,164 356.58794,164 c -2.1513,0 -2.33027,-0.50263 -2.92498,-8.21474 z M 111,135.47271 c -3.575,-0.70889 -12.575,-1.58575 -20,-1.94858 -34.476088,-1.6847 -46.314771,-4.63141 -54.303047,-13.5163 -4.458168,-4.95855 -8.46987,-11.56825 -7.568398,-12.46972 0.297463,-0.29746 3.964612,0.33481 8.14922,1.40505 9.797431,2.50577 18.544693,3.62293 43.64434,5.57406 23.348885,1.81505 34.471555,3.53305 39.832175,6.15247 3.38322,1.65318 3.71829,2.16902 3.46235,5.33031 -0.15584,1.925 -0.73569,5.1875 -1.28854,7.25 -1.14098,4.25661 -1.4142,4.30752 -11.9281,2.22271 z M 350.67699,130.25 c -1.84911,-8.14079 -1.74659,-8.28773 7.82301,-11.21226 5.10431,-1.5599 14.85357,-2.80602 36,-4.60137 28.34432,-2.40647 40.13276,-4.18117 47.79149,-7.19481 2.08532,-0.82056 4.03813,-1.24527 4.33959,-0.94381 0.91436,0.91435 -7.0745,11.93449 -11.82824,16.31634 -7.33966,6.76546 -15.52613,8.62617 -45.80284,10.41054 -10.175,0.59967 -22.13507,1.73945 -26.57793,2.53284 C 357.97921,136.35086 353.864,137 353.27716,137 c -0.58683,0 -1.75691,-3.0375 -2.60017,-6.75 z M 123.84341,112.51008 C 122.04009,110.70675 108.03013,107.9699 95.705882,107.01339 36.244491,102.39848 28.375588,100.31442 19.238903,86.761261 14.924609,80.361532 7.0641314,59.602535 8.435767,58.2309 8.6913593,57.975307 11.960372,60.068445 15.70024,62.882316 33.19649,76.046469 52.187115,82.196515 82.5,84.51518 c 11.661045,0.891966 30.29965,3.207344 35.87261,4.45627 5.07378,1.137059 9.35247,3.049866 13.7752,6.158267 l 2.64782,1.860946 -3.36299,7.754667 c -2.23202,5.14681 -3.97705,7.85293 -5.18896,8.04685 -1.00429,0.1607 -2.08441,0.0338 -2.40027,-0.2821 z M 343.086,104.91071 c -1.83454,-4.48692 -2.92412,-8.463194 -2.44671,-8.928907 2.24327,-2.188298 12.06395,-6.23603 18.26895,-7.52981 3.79514,-0.791308 16.50584,-2.359045 28.246,-3.483859 11.74017,-1.124814 25.82398,-2.954803 31.29735,-4.066642 16.31426,-3.314012 31.7372,-10.723423 43.79387,-21.03924 2.06001,-1.762561 3.95086,-2.99927 4.20189,-2.74824 0.63596,0.635967 -5.91539,19.911382 -8.53457,25.110433 -8.7463,17.361325 -16.81735,19.885905 -79.13825,24.754025 -8.78099,0.68592 -16.8018,1.96363 -22.26511,3.54684 -4.6968,1.36108 -8.89432,2.47469 -9.32782,2.47469 -0.4335,0 -2.27652,-3.64018 -4.0956,-8.08929 z"
       id="path54"
       inkscape:connector-curvature="0" />
    <path
       style="fill:#4f4d4e"
       d="m 208.05057,292.74227 c -5.44749,-2.73858 -6.83624,-3.99658 -8.93938,-8.0978 -5.99471,-11.68991 -1.08883,-22.84817 11.26249,-25.61616 3.97897,-0.89171 5.22189,-0.76365 8.39823,0.86523 8.99041,4.61043 12.85032,14.55493 8.72193,22.47077 -2.26002,4.33338 -1.90681,5.63569 1.5285,5.63569 4.09026,0 11.11005,-6.55571 13.85681,-12.94072 1.15813,-2.69214 2.55019,-7.96932 3.09346,-11.72705 1.16356,-8.04811 1.31183,-21.33702 0.25657,-22.99564 -0.4911,-0.77191 -4.27172,-1.13825 -11.23468,-1.08862 -17.8803,0.12744 -30.16047,-4.42835 -41.05249,-15.22996 -19.70992,-19.54632 -22.88497,-48.0465 -8.33693,-74.83477 7.29875,-13.43968 20.0309,-27.37162 36.03338,-39.42891 4.56542,-3.43988 8.49578,-6.73986 8.73413,-7.33328 0.23835,-0.59343 0.0468,-4.418429 -0.4257,-8.500004 -1.34188,-11.591811 -1.09157,-35.355061 0.50518,-47.959053 3.06131,-24.164652 8.3654,-37.2027062 17.37384,-42.7068696 4.80501,-2.93586926 10.04468,-2.8611296 16.14532,0.2302999 5.66741,2.8718901 8.93798,6.7750377 12.16224,14.5145767 2.04278,4.903498 2.29092,7.126823 2.28795,20.5 -0.003,13.316873 -0.3026,16.015133 -2.67048,24.04685 -5.88407,19.958421 -14.67391,35.750411 -27.71364,49.79082 -7.44292,8.01411 -8.03663,8.9687 -8.02825,12.90821 0.0121,5.67908 2.66005,26.75655 3.46221,27.55871 0.34922,0.34923 4.09855,0.69982 8.33185,0.77909 8.91563,0.16696 14.51003,1.97393 22.01036,7.10927 14.26108,9.7643 20.71284,29.93358 15.17889,47.45171 -3.87917,12.2798 -14.75631,22.18209 -29.49236,26.84914 -6.48763,2.0547 -6.5,2.0834 -6.5,15.07942 0,6.50559 -0.50862,14.21299 -1.13027,17.12756 -3.94257,18.48457 -15.118,28.81145 -31.15724,28.79149 -5.00343,-0.006 -7.46766,-0.63874 -12.66192,-3.25 z m 35.46956,-63.13333 c 1.86273,-1.36207 1.83839,-1.95733 -1.1678,-28.55893 -1.68861,-14.94233 -3.55072,-27.6484 -4.13803,-28.23571 -1.48538,-1.48538 -10.2627,1.77693 -14.76427,5.48751 -1.92944,1.5904 -4.39501,4.63019 -5.47905,6.75508 -2.75064,5.3917 -2.67533,15.43504 0.16526,22.03816 2.35649,5.47783 2.10207,6.63804 -1.08197,4.93399 -3.56273,-1.90671 -7.88191,-8.8818 -9.08325,-14.66863 -3.17418,-15.28997 5.13357,-30.35427 21.19506,-38.43263 3.48366,-1.75216 6.59396,-3.59142 6.91179,-4.08726 0.85575,-1.33504 -1.83722,-21.99987 -3.02125,-23.1839 -1.39461,-1.39461 -4.33877,0.30851 -14.28084,8.26108 -15.9858,12.78692 -23.6949,22.06051 -27.91682,33.5823 -1.7393,4.74663 -2.21532,8.29784 -2.27877,17 -0.0742,10.17861 0.13019,11.41069 2.73726,16.5 5.08465,9.92584 14.66425,17.90792 26.29113,21.90677 7.2333,2.48775 22.8894,2.91202 25.91155,0.70217 z m 15.07983,-6.48017 c 9.71505,-7.15226 13.7873,-14.72492 13.78206,-25.62877 -0.005,-11.12563 -4.54905,-17.89808 -15.38202,-22.92716 -6.16202,-2.86063 -9.79862,-3.26121 -10.60193,-1.1678 -0.29654,0.77277 0.19484,7.63527 1.09196,15.25 0.89713,7.61473 2.10723,18.11849 2.68911,23.3417 1.10455,9.91474 2.16909,14.00326 3.64607,14.00326 0.48109,0 2.62973,-1.29205 4.77475,-2.87123 z M 246.76514,86.488454 C 256.77131,73.20722 265,54.167285 265,44.295794 c 0,-6.083652 -2.41414,-10.789902 -6.53887,-12.747213 -8.15837,-3.8714 -14.23529,2.797326 -17.87289,19.613453 -2.73509,12.643936 -4.63747,40.4554 -2.887,42.205869 1.6067,1.606704 4.09096,-0.278834 9.0639,-6.879449 z M 244,70 c 0,-5.091943 0.32043,-5.450024 4.5,-5.028696 3.39962,0.342705 3.74111,1.635766 1.5607,5.909718 C 248.66766,73.611598 247.29205,75 245.97968,75 244.27073,75 244,74.316223 244,70 Z m -21.5,187.53711 c -17.27574,-2.98895 -28.90887,-7.70248 -42,-17.01766 -31.35094,-22.30821 -46.92156,-64.18152 -37.52614,-100.91725 7.06476,-27.62292 24.59293,-50.056908 49.2829,-63.076267 C 200.73813,72.053588 215.21829,67 219.55162,67 221.73726,67 222,67.42494 222,70.959858 c 0,3.810164 -0.16066,4.003678 -4.25,5.119007 -10.89079,2.970363 -14.76895,4.416783 -21.67433,8.083785 -33.50291,17.79123 -51.4774,53.78703 -45.70471,91.5285 2.75538,18.01451 9.95235,33.04479 22.03371,46.01555 15.80137,16.96466 34.79026,26.10086 58.32909,28.06412 9.41097,0.78493 10.19574,1.38963 8.83574,6.80827 -0.54195,2.15932 -1.1188,2.40731 -5.33855,2.29501 -2.60202,-0.0692 -7.88095,-0.67089 -11.73095,-1.33699 z m 38.5,-5.96972 c 0,-3.72893 0.35719,-4.54041 2.25,-5.11162 1.2375,-0.37345 5.3407,-2.0184 9.11823,-3.65544 19.2769,-8.35389 34.95245,-23.65439 44.17034,-43.11357 6.31475,-13.33056 7.83579,-20.48664 7.90414,-37.18676 0.0686,-16.76921 -1.59374,-24.70563 -7.97064,-38.05325 -7.38635,-15.46053 -18.28998,-27.836672 -32.79289,-37.221516 -5.21678,-3.375781 -6.6599,-4.803132 -6.13654,-6.069495 0.37635,-0.910656 0.9107,-2.443239 1.18744,-3.405739 0.71929,-2.501615 2.0248,-2.217712 9.12978,1.985414 7.80199,4.615454 20.45704,16.251602 26.68965,24.540756 6.6507,8.84521 13.24483,22.53894 16.21125,33.66519 2.14354,8.03986 2.55312,11.78312 2.57773,23.55864 0.0326,15.57806 -1.32787,23.35081 -6.37987,36.45107 -9.47761,24.57629 -32.92368,47.034 -58.01286,55.56738 C 264.93292,254.8833 261.50351,256 261.32485,256 261.14618,256 261,254.00532 261,251.56739 Z m 68.0318,-37.17656 c -0.0175,-0.61004 1.58929,-4.61781 3.57062,-8.90614 1.98134,-4.28834 4.77125,-12.33921 6.19982,-17.89083 2.26903,-8.8178 2.60317,-12.17978 2.64313,-26.59386 0.0346,-12.46848 -0.38494,-18.27695 -1.71692,-23.77262 -3.56346,-14.70256 -9.76411,-28.03252 -17.72409,-38.102644 C 319.80196,96.338491 318,93.422961 318,92.64578 c 0,-3.238252 11.64526,-11.782424 21,-15.40778 8.70017,-3.371681 12.12293,-4.066266 36,-7.305517 41.20036,-5.589391 60.67296,-11.070031 83.60143,-23.529955 C 463.05722,43.981138 467.01712,42 467.40121,42 469.10677,42 459.89389,51.594946 454,55.956973 c -9.57067,7.083185 -21.3262,12.574665 -34.14587,15.950908 -14.63588,3.854569 -19.30686,4.624135 -42.88695,7.065828 -26.42639,2.736425 -34.73438,5.066218 -41.23029,11.562124 -3.04329,3.043297 -3.4462,6.191834 -1.31879,10.305787 3.45616,6.68348 7.95027,22.28972 10.47927,36.39028 4.12611,23.0054 1.28998,45.20701 -8.33763,65.2681 -4.32225,9.00629 -7.46816,13.97545 -7.52794,11.89083 z M 139.88041,207.76309 C 131.36154,190.8873 128.05203,176.99938 128.02181,158 c -0.031,-19.52617 4.92537,-42.94122 12.11005,-57.21016 C 141.15934,98.749249 142,96.447435 142,95.674697 142,93.14523 137.89691,88.98145 132.91815,86.458523 125.43246,82.665239 118.28404,81.174251 97.032823,78.973709 74.169483,76.606235 68.942984,75.769814 55.5,72.327019 38.658264,68.013792 25.12467,60.89083 14.164045,50.5712 5.0097113,41.952226 5.7812797,41.372082 18.149139,47.574796 36.399693,56.727792 50.933293,61.751849 69.5,65.326049 c 8.372734,1.611801 13.322496,2.357107 38,5.721822 16.2082,2.209946 26.19276,4.758875 33.88279,8.649831 C 146.88991,82.484165 156,90.557953 156,92.652156 c 0,0.758159 -2.19516,4.409081 -4.87814,8.113154 -8.32825,11.49787 -14.10445,24.79429 -17.26142,39.73469 -1.63669,7.74563 -1.63551,32.2626 0.002,40 1.83185,8.65608 5.89694,21.09151 8.70838,26.63962 2.62866,5.18741 2.98071,6.86038 1.44365,6.86038 -0.54209,0 -2.40238,-2.80661 -4.13399,-6.23691 z m -26.03246,-18.75441 c -9.66521,-3.21837 -18.247321,-7.33527 -27.586235,-13.23333 -6.559478,-4.14269 -7.304454,-6.19318 -1.933734,-5.32246 1.74461,0.28284 7.481567,0.72556 12.748792,0.98382 12.300037,0.60309 23.164197,2.34458 24.132977,3.86843 0.41779,0.65717 0.76652,2.37578 0.77494,3.81913 0.008,1.44335 0.68725,4.52877 1.50852,6.85648 1.40108,3.97108 1.29363,6.09148 -0.30223,5.96409 -0.38004,-0.0303 -4.5844,-1.35161 -9.34303,-2.93616 z m 235.90597,2.41191 c -0.33077,-0.33078 -0.0247,-2.24822 0.6801,-4.261 0.70483,-2.01277 1.59024,-5.74479 1.96759,-8.29336 0.81798,-5.52464 0.589,-5.44616 20.09839,-6.88876 7.15,-0.5287 15.1375,-1.20542 17.75,-1.50382 2.6125,-0.29839 4.75,-0.18852 4.75,0.24416 0,2.16157 -24.32374,15.10837 -34.09808,18.14938 -9.71521,3.02261 -10.49921,3.20218 -11.148,2.5534 z M 105,162.90908 C 68.800223,159.64739 66.903952,159.08526 56.25,148.45779 52.2625,144.4802 49,140.66775 49,139.98567 c 0,-0.90452 1.420769,-1.07995 5.25,-0.64826 2.8875,0.32553 16.05,1.49575 29.25,2.60049 25.90392,2.16796 34.28687,3.40345 36.16674,5.33031 0.85048,0.87174 1.00175,3.42401 0.51751,8.73179 -0.79733,8.73942 0.18236,8.29365 -15.18425,6.90908 z m 249.75,0.51576 c -1.03955,-1.05088 -0.94712,-16.18498 0.10281,-16.83387 1.83666,-1.13512 21.62796,-3.60856 41.14719,-5.14241 11.275,-0.88601 22.6375,-1.95306 25.25,-2.37121 2.6125,-0.41815 4.75,-0.40899 4.75,0.0204 0,0.42935 -1.83378,2.94551 -4.07507,5.59146 C 411.05352,157.52341 404.412,160.20192 379,162.0007 c -7.975,0.56451 -16.525,1.28646 -19,1.60435 -2.475,0.31788 -4.8375,0.23679 -5.25,-0.18021 z M 116,135.90889 c -1.925,-0.48751 -14.975,-1.77947 -29,-2.87101 -14.025,-1.09154 -27.75,-2.41781 -30.5,-2.94726 -11.054058,-2.12823 -17.485458,-6.32163 -23.4929,-15.31785 -4.382487,-6.56282 -4.93312,-8.34573 -2.2571,-7.30833 7.989109,3.09709 24.960934,5.52995 52.75,7.56154 18.81296,1.37537 26.344,2.49394 34.25,5.08709 7.00734,2.2984 7.14521,2.61425 5.16714,11.83771 -1.13453,5.29011 -1.295,5.38194 -6.91714,3.95811 z m 236.03501,-1.3168 c -0.50352,-1.32436 -1.05488,-4.56956 -1.22525,-7.21157 -0.27776,-4.30745 -0.0454,-4.93292 2.24895,-6.05497 5.02721,-2.45851 14.635,-4.3782 26.94129,-5.38301 40.94537,-3.34321 50.77763,-4.58474 60.31478,-7.61599 2.64813,-0.84168 5.05095,-1.29415 5.3396,-1.0055 0.90966,0.90966 -7.43081,12.34896 -11.37672,15.60365 -7.68376,6.33775 -15.47457,7.90839 -52.27766,10.5392 -11.275,0.80598 -22.07203,1.93132 -23.9934,2.50076 -4.75655,1.4097 -4.92883,1.3701 -5.97159,-1.37257 z M 124,112.06088 c -4.90707,-2.87326 -20.27176,-5.13957 -48,-7.08007 -18.171218,-1.27167 -31.518837,-3.257 -40.377037,-6.0057 C 27.061077,96.318355 20.772789,90.445802 16.258152,80.890555 12.843153,73.662696 8.4768846,60.189782 9.2869677,59.379699 9.5696922,59.096974 12.484499,60.906463 15.764317,63.400784 33.033616,76.534194 48.176799,81.479296 80.5,84.54063 c 33.92749,3.213278 38.96046,4.136231 47.82039,8.769379 6.38729,3.340128 6.2746,2.811815 2.49357,11.689991 -3.6219,8.50455 -3.88421,8.77635 -6.81396,7.06088 z m 219.47827,-6.81088 -3.5823,-7.75 2.76579,-2.20802 c 6.37191,-5.086915 19.60854,-8.000664 46.83824,-10.310397 16.8391,-1.428361 30.25854,-3.538979 39,-6.133949 11.51692,-3.418885 25.88773,-11.277424 33.23502,-18.174249 1.77926,-1.670174 3.53188,-2.739822 3.8947,-2.376997 0.89055,0.890546 -5.14332,17.79303 -8.93329,25.024542 -1.67788,3.201511 -5.06011,7.589691 -7.51607,9.751512 -8.22001,7.235538 -18.40488,9.246698 -68.13548,13.454338 -13.79563,1.16723 -20.30223,2.18152 -25.77106,4.01734 -4.02376,1.35074 -7.51783,2.45588 -7.76459,2.45588 -0.24677,0 -2.0607,-3.4875 -4.03096,-7.75 z"
       id="path52"
       inkscape:connector-curvature="0" />
    <path
       style="fill:#2d292a"
       d="m 213.83333,295.25 c -0.18333,-0.4125 -2.90356,-2.03363 -6.04496,-3.60251 -4.79345,-2.39394 -6.1197,-3.67137 -8.25,-7.94634 -3.00856,-6.03739 -3.22296,-10.94407 -0.68676,-15.71675 3.90834,-7.35479 12.21562,-10.37529 19.57807,-7.11853 8.56317,3.7879 12.33163,13.93677 8.15947,21.97439 -2.45647,4.73235 -1.47834,6.56572 3.106,5.82179 5.11734,-0.83044 11.74865,-7.55954 14.37977,-14.59184 2.4883,-6.65058 4.52572,-26.97295 3.21232,-32.04153 l -0.89839,-3.46697 -12.44442,-0.13593 C 219.37808,238.26667 211.87832,236.30627 202.4002,230.18026 186.25183,219.74307 175.91551,198.62109 177.35446,179 c 1.77237,-24.16755 16.35106,-46.71517 44.08021,-68.17515 l 9.06533,-7.01579 0.0305,-29.654528 c 0.0277,-26.937786 0.23596,-30.595657 2.27358,-39.927345 C 236.53148,17.156696 241.15462,7.9038733 247.75,4.3141139 249.5375,3.3412069 251,2.1975239 251,1.7725961 251,1.3476682 253.025,1 255.5,1 c 2.475,0 4.5,0.4196755 4.5,0.9326123 0,0.5129368 1.0125,1.2401666 2.25,1.6160662 11.23344,3.4122404 17.82228,21.4199195 15.65627,42.7894985 -2.44107,24.083243 -15.2891,50.971048 -32.31231,67.621823 -3.53086,3.45361 -5.78694,6.5771 -6.1395,8.5 -0.6927,3.77807 2.27931,29.67377 3.55164,30.9461 0.51231,0.51231 4.65802,0.96802 9.21268,1.01268 7.09484,0.0696 9.21242,0.52496 14.78122,3.17863 20.65714,9.84365 29.30515,33.96239 19.64793,54.79677 -4.20202,9.0654 -14.03771,17.10895 -26.42865,21.61312 -3.45439,1.2557 -6.59575,2.78024 -6.98079,3.38789 -0.38505,0.60765 -0.75598,6.95481 -0.82431,14.10481 -0.12852,13.44871 -1.31751,19.35958 -5.63229,28 -3.56396,7.13688 -12.3195,14.5 -17.24205,14.5 -0.84691,0 -1.53984,0.45 -1.53984,1 0,1.15443 -13.65758,1.39545 -14.16667,0.25 z m 30.74776,-65.40141 c 1.53373,-1.53476 1.53363,-2.6649 -10e-4,-16 -5.34639,-46.44223 -4.54865,-43.75994 -12.23559,-41.14073 -14.54472,4.95588 -20.9237,18.84968 -15.36773,33.47181 1.08695,2.86062 1.83065,5.34675 1.65266,5.52473 -0.84116,0.84116 -5.92116,-4.33799 -7.89483,-8.04893 -3.13019,-5.88543 -3.15323,-19.1145 -0.0451,-25.8727 3.35108,-7.28636 10.35277,-14.07102 18.85817,-18.27362 8.48275,-4.1914 8.15822,-3.30424 6.41453,-17.53538 -1.90582,-15.55448 -1.61478,-15.53103 -18.96174,-1.52801 -12.38326,9.99617 -19.62837,18.05983 -23.90672,26.60771 -13.8215,27.61451 -2.53989,54.58376 26.40672,63.12657 7.85004,2.31672 22.62988,2.12141 25.08109,-0.33145 z m 13.89921,-5.83504 c 10.48855,-7.21631 14.98557,-16.11696 14.36382,-28.42936 -0.29676,-5.87663 -0.89377,-8.06083 -3.12476,-11.43208 -3.52565,-5.32762 -9.55447,-9.68271 -16.38417,-11.83559 -8.25579,-2.6024 -8.60603,-1.90316 -6.85393,13.68348 4.18402,37.22093 4.27799,37.86806 5.77157,39.75 1.32222,1.666 1.2549,1.68477 6.22747,-1.73645 z M 244.05856,91.280528 c 1.79615,-2.04571 5.15958,-6.65821 7.47427,-10.25 C 269.02346,53.889725 270.21956,30 254.08781,30 c -6.38581,0 -11.07392,6.928041 -14.09691,20.832289 -2.12227,9.761375 -4.53535,37.86231 -3.57864,41.674156 0.90404,3.601966 3.81748,3.134858 7.6463,-1.225917 z M 244.1925,69.75 c 0.24415,-3.374385 0.71955,-4.302687 2.3075,-4.505728 1.1,-0.14065 2.63368,0.1549 3.40818,0.656777 C 252.00207,67.257897 248.66172,74 245.89558,74 c -1.74695,0 -1.97026,-0.557252 -1.70308,-4.25 z M 225,257.35425 C 207.78292,253.61441 200.84874,251.42819 192.65435,247.15622 159.3723,229.80536 139.10471,194.04786 141.31194,156.57436 143.33288,122.26377 163.74599,91.438946 194.5976,76.110339 203.00512,71.933068 214.64755,68 218.60534,68 220.66437,68 221,68.478941 221,71.417136 c 0,3.279886 -0.19608,3.459187 -4.88175,4.464084 -18.36936,3.939522 -37.70903,16.545892 -49.6921,32.39129 -5.57287,7.3691 -12.80045,21.93864 -14.82741,29.88947 -0.79389,3.11409 -1.96092,9.99603 -2.59339,15.29319 -2.8997,24.28599 6.17668,51.2003 23.37153,69.30396 15.90548,16.74613 35.56033,26.14825 58.3192,27.89763 L 239,251.29505 v 3.23585 c 0,4.78645 -2.57332,5.30541 -14,2.82335 z m 36.18216,-5.88949 c 0.29938,-3.56619 0.60828,-3.88455 5.31784,-5.48067 13.14014,-4.45332 24.35808,-11.88443 35.04398,-23.21421 12.78912,-13.55973 20.03867,-28.08222 22.93574,-45.94545 1.91595,-11.81373 1.91048,-18.3249 -0.0248,-29.42234 -3.45884,-19.83448 -10.361,-33.22487 -24.45496,-47.443315 -5.225,-5.27115 -12.32925,-11.286012 -15.78723,-13.366361 -5.35183,-3.219706 -6.19058,-4.103067 -5.63761,-5.937433 0.3573,-1.18524 0.99735,-2.530775 1.42233,-2.990079 1.68133,-1.817089 13.15734,5.686477 23.23127,15.189714 30.11676,28.410614 38.43965,74.877994 19.9971,111.645384 -11.61296,23.1518 -36.96853,44.46613 -59.5437,50.05346 -2.75218,0.68116 -2.81044,0.60918 -2.5,-3.0887 z M 140.29307,206.75 c -2.51884,-3.30795 -7.07295,-16.1125 -9.86965,-27.75 -1.89711,-7.89416 -2.13158,-31.27275 -0.41621,-41.5 1.63773,-9.7644 6.53257,-26.61621 10.07619,-34.69002 2.74279,-6.24919 2.86586,-7.007422 1.55033,-9.551379 C 137.30346,84.884795 124.19856,80.455858 96.5,78.0052 61.321542,74.89275 42.84355,69.793253 25.5,58.410846 17.995727,53.485863 8.4999233,45 10.493069,45 10.9875,45 15.241327,46.975434 19.946017,49.389853 40.461153,59.9181 61.620998,65.766284 94.5,69.995174 c 8.8,1.131854 17.575,2.296659 19.5,2.588454 16.26696,2.465781 30.79881,8.497359 37.81274,15.694528 l 4.31275,4.425411 -5.671,7.898213 c -6.69757,9.32796 -10.261,16.16644 -13.75575,26.39822 -2.72685,7.98354 -5.70261,25.56172 -5.69284,33.62834 0.0138,11.42756 4.39435,31.82048 9.41782,43.84333 1.5344,3.67235 1.49213,4.40949 -0.13065,2.27833 z m 194.75349,-3.87427 c -0.0256,-0.34335 0.65362,-2.59335 1.5094,-5 4.447,-12.506 5.77713,-21.1114 5.77713,-37.37573 0,-18.09604 -1.63758,-26.96023 -7.579,-41.02504 -3.30315,-7.81935 -11.35365,-21.067805 -14.2755,-23.492725 -2.41989,-2.008337 -1.70523,-4.576061 2.23703,-8.037411 10.26165,-9.009848 21.23906,-13.071043 43.28438,-16.01347 24.97096,-3.332916 29.21493,-3.977672 40,-6.076909 15.17288,-2.953292 30.60607,-8.144742 45.78068,-15.399797 12.56309,-6.006477 13.16964,-6.193617 11.22561,-3.463479 -4.78898,6.725501 -24.27445,18.735909 -36.50629,22.501661 -12.94806,3.986251 -33.82293,7.513367 -53.5,9.039612 -18.56594,1.44006 -31.38634,5.227162 -37.37081,11.039208 -4.14115,4.021839 -4.62994,7.275091 -1.79219,11.92835 2.34849,3.85097 6.51728,17.24491 9.33734,30 1.79409,8.11461 2.20765,13.11089 2.19351,26.5 -0.0154,14.55384 -0.32165,17.6322 -2.59673,26.09901 -2.11942,7.88749 -7.55184,21.09251 -7.72456,18.77672 z M 114.5,188.60175 c -7.82691,-2.49974 -25.398069,-11.28088 -29.999629,-14.99224 l -2.999629,-2.41934 8.999629,0.43023 c 9.427508,0.45069 25.755509,2.16366 28.749629,3.01613 1.14397,0.3257 1.75,1.49127 1.75,3.36576 0,1.57713 0.38411,3.90931 0.85357,5.18261 1.88521,5.11312 2.20521,7.81642 0.91548,7.73379 -0.69798,-0.0447 -4.41905,-1.08734 -8.26905,-2.31694 z m 235.5,1.83251 c 0,-0.31116 0.46629,-1.43701 1.0362,-2.5019 0.56991,-1.06488 1.35855,-4.51677 1.75254,-7.67085 l 0.71634,-5.73469 4.99746,-0.68527 c 6.07464,-0.83297 33.85073,-2.82161 34.2222,-2.45015 0.67478,0.67479 -15.11062,9.8272 -22.72474,13.17585 -10.25392,4.50961 -20,7.36863 -20,5.86701 z M 96.033787,161.38325 c -19.143296,-1.60249 -26.545948,-3.26304 -32.34712,-7.25604 -4.656214,-3.20491 -14.169112,-12.9781 -13.390415,-13.7568 0.561033,-0.56103 44.470768,3.07681 57.962678,4.80211 11.87864,1.51899 12.1501,1.7758 11.25877,10.65122 L 118.79702,163 l -3.14851,-0.11918 c -1.73168,-0.0656 -10.55831,-0.73945 -19.614723,-1.49757 z m 258.649463,-5.62146 c -0.33376,-3.98102 -0.25444,-7.5906 0.17625,-8.02129 1.4842,-1.4842 16.69898,-3.54972 38.6405,-5.24574 12.1,-0.9353 23.9125,-2.04614 26.25,-2.46854 5.68208,-1.0268 5.49443,0.17583 -1.10816,7.10227 -6.07781,6.3759 -12.06267,10.12596 -18.68984,11.71089 C 396.40442,159.68781 361.73745,163 356.40498,163 c -0.6613,0 -1.3618,-2.94492 -1.72173,-7.23821 z M 115,134.90071 c -1.925,-0.5038 -13.175,-1.58503 -25,-2.40274 -41.365642,-2.86048 -47.27379,-4.72783 -56.153177,-17.74797 -4.381059,-6.42409 -4.188304,-6.59493 4.799678,-4.25386 7.427653,1.93466 17.230229,3.10723 41.853499,5.00643 11,0.84844 22.82332,1.99281 26.27404,2.54305 6.62477,1.05637 17.25522,4.62977 17.18359,5.77623 -0.0233,0.37298 -0.61975,3.15315 -1.32543,6.17815 -1.38426,5.93377 -2.05044,6.36153 -7.6322,4.90071 z M 352.47842,133.75 c -0.30783,-1.2375 -0.6539,-4.275 -0.76905,-6.75 l -0.20937,-4.5 6.82902,-2.28173 c 4.92261,-1.64475 11.90166,-2.6966 25,-3.76788 37.44683,-3.06267 48.4901,-4.54988 60.02681,-8.08386 1.40529,-0.43047 0.8861,0.85197 -2.1386,5.28249 -5.1805,7.58828 -7.54686,9.70447 -14.22018,12.71673 -6.90662,3.11759 -14.87704,4.259 -42.49705,6.08584 -12.1,0.80032 -23.57203,1.92611 -25.4934,2.50177 -4.99078,1.49527 -5.89852,1.32794 -6.52818,-1.20336 z M 120.29004,110.00144 C 113.6427,107.63794 104.40863,106.32721 85,104.99217 45.735962,102.29135 30.659647,98.932137 24.058163,91.413462 18.501768,85.085079 12.501597,72.508306 10.502567,63 l -0.7358414,-3.5 2.3666374,2.142532 c 4.945159,4.476883 18.253791,12.361399 25.735549,15.24667 9.805906,3.781557 24.185663,6.729969 39.631088,8.125921 17.960566,1.623269 36.49285,3.94179 41,5.12939 5.83864,1.538438 14.5,5.980649 14.5,7.436711 0,0.691183 -0.67318,2.530666 -1.49596,4.087736 -0.82277,1.55707 -2.14981,4.51854 -2.94897,6.58104 -1.65754,4.27785 -1.34549,4.21172 -8.26503,1.75144 z m 223.9811,-5.09337 c -1.77587,-3.94211 -2.98152,-7.567666 -2.67923,-8.056788 1.16913,-1.891687 10.69839,-5.939254 17.14765,-7.28349 C 362.4578,88.792791 373.15,87.436381 382.5,86.55355 c 42.47059,-4.010094 57.54742,-8.343739 75.00907,-21.560413 3.69946,-2.800112 6.89986,-4.917544 7.112,-4.705405 0.58224,0.582246 -4.95541,15.459947 -8.08155,21.712268 -7.45102,14.9021 -17.33659,18.91266 -54.03952,21.92374 -7.15,0.58659 -18.69462,1.53531 -25.6547,2.10828 -10.60337,0.8729 -18.1016,2.36828 -27.8453,5.55321 -1.07526,0.35147 -2.41428,-1.53922 -4.72886,-6.67716 z"
       id="path50"
       inkscape:connector-curvature="0" />
    <path
       style="fill:#211d1e"
       d="m 217.25,295.27153 c 2.0625,-0.21574 5.4375,-0.21574 7.5,0 2.0625,0.21575 0.375,0.39226 -3.75,0.39226 -4.125,0 -5.8125,-0.17651 -3.75,-0.39226 z m -7.82886,-3.65601 c -8.18186,-3.80982 -12.454,-11.29635 -10.96758,-19.21965 0.94372,-5.03049 6.87194,-10.99111 11.86251,-11.92734 3.82329,-0.71726 9.68393,0.92883 9.68393,2.71994 0,0.52021 1.57423,2.43053 3.49829,4.24515 4.64449,4.38031 5.33912,8.20507 2.54022,13.98683 -1.38512,2.86127 -1.94026,5.31374 -1.50982,6.66995 0.58905,1.85592 1.22138,2.07233 4.69409,1.60654 8.44245,-1.13237 15.76982,-10.85972 17.87814,-23.7339 1.5607,-9.5302 1.66482,-25.59323 0.17555,-27.08473 -0.81667,-0.8179 -5.472,-1.28694 -14,-1.41054 -10.18511,-0.14762 -13.9632,-0.61561 -18.62756,-2.3074 -15.90663,-5.76939 -26.26868,-16.1643 -33.04533,-33.15011 -2.70107,-6.77029 -3.00158,-8.64333 -3.04994,-19.01026 -0.0441,-9.45841 0.35686,-12.7253 2.25866,-18.40192 6.73282,-20.09666 19.71158,-36.54803 43.04462,-54.56167 l 8.35693,-6.45174 -0.73852,-11.542333 C 230.1959,72.04627 230.17273,69.799939 231.10861,56.5 233.56773,21.553348 241.89019,3.0173778 255.12788,3.0037381 277.49357,2.9806931 284.5919,39.110143 269.42174,75.757372 263.2335,90.706577 255.68437,102.27701 244.47032,114 c -2.89367,3.025 -5.55763,6.49372 -5.91991,7.70826 -0.76463,2.56342 2.27183,31.38445 3.4375,32.62757 0.43106,0.45971 4.77263,0.91803 9.64792,1.01851 7.2115,0.14862 9.91199,0.67053 14.48418,2.79933 23.99937,11.17403 31.28364,42.83418 14.22139,61.81151 -5.1043,5.6772 -13.82889,11.19449 -21.63421,13.6811 -7.81129,2.48852 -7.65658,2.18821 -7.04533,13.67623 0.83329,15.6612 -2.96212,29.99755 -10.21116,38.57039 -6.75356,7.98689 -21.5063,10.62271 -32.02956,5.72262 z m -0.23261,-14.60975 C 207.4655,274.00357 206,273.93612 206,276.85902 c 0,2.25593 1.88842,4.12103 3.53342,3.48978 1.01217,-0.3884 0.93795,-1.1078 -0.34489,-3.34303 z m 36.39799,-46.07758 c 1.23628,-1.02602 1.46376,-2.45856 1.01242,-6.37577 C 246.27877,221.77359 244.8822,209.6 243.49545,197.5 c -1.38675,-12.1 -2.74911,-23.0125 -3.02746,-24.25 -0.68483,-3.04462 -5.36205,-2.99096 -11.96799,0.13731 -12.11184,5.73561 -17.11667,17.60028 -13.0809,31.01012 1.79615,5.96817 0.0941,5.7763 -3.3292,-0.37529 -3.57129,-6.41762 -4.0026,-16.62615 -1.03473,-24.49115 2.94443,-7.80288 10.19339,-15.11569 19.28477,-19.4546 3.73169,-1.78097 7.04024,-3.90356 7.35233,-4.71685 0.31209,-0.8133 -0.10746,-6.90167 -0.93234,-13.52972 -1.36395,-10.95963 -2.32843,-13.74306 -4.78684,-13.81451 -1.9892,-0.0578 -24.95571,19.02791 -30.96248,25.73055 -10.88725,12.14854 -16.80484,31.14983 -13.99464,44.93663 3.1831,15.61622 16.30465,28.41635 33.61811,32.7946 7.06638,1.78696 22.54826,1.44639 24.95244,-0.5489 z m 11.44097,-4.57366 c 6.17913,-4.11226 13.06067,-11.97423 14.98664,-17.12183 2.59244,-6.92893 2.63018,-17.25169 0.0831,-22.7327 -3.54647,-7.63162 -12.73394,-14.26368 -22.16137,-15.9974 -6.20501,-1.1411 -6.24237,-0.77514 -2.85827,28.00186 1.67166,14.21507 3.47889,26.66683 4.01607,27.67056 1.20847,2.25805 2.74093,2.30441 5.93382,0.17951 z M 243.6788,93.25 c 4.39737,-4.781777 11.20648,-15.082939 15.05008,-22.76853 9.48026,-18.956517 10.01862,-35.457963 1.30385,-39.964543 -9.06852,-4.689518 -16.04597,1.044725 -20.11088,16.527628 -3.83586,14.610498 -5.77814,47.166264 -2.92185,48.974967 2.3569,1.492474 3.00753,1.222676 6.6788,-2.769522 z M 245,70.618034 c 0,-3.745244 1.18644,-5.144202 3.58286,-4.224612 1.31138,0.503224 1.30656,0.919737 -0.0408,3.5252 C 246.24538,74.359955 245,74.605865 245,70.618034 Z M 227,256.77661 c -18.09842,-3.95435 -25.77414,-6.13696 -31.23144,-8.88076 -24.68285,-12.40993 -42.21429,-33.41548 -50.40695,-60.39585 -2.50941,-8.26408 -2.73095,-10.34918 -2.70926,-25.5 0.0214,-14.97434 0.2702,-17.312 2.69048,-25.28184 2.78806,-9.18092 8.47503,-21.29924 13.31473,-28.37226 12.0975,-17.679968 31.50803,-31.642235 52.40825,-37.697974 l 8.43419,-2.443768 0.32524,2.489344 c 0.17889,1.369138 0.13048,2.684111 -0.10757,2.922161 -0.23805,0.23805 -3.75394,1.353147 -7.81308,2.477994 -26.78386,7.422186 -49.95655,29.329743 -59.55874,56.307073 -2.59652,7.29491 -4.54448,19.87091 -4.58479,29.59927 -0.12522,30.22797 14.61184,58.18546 39.3413,74.63385 13.16535,8.75672 26.78517,13.43013 43.64764,14.97696 7.15633,0.65646 7.25,0.70203 7.25,3.52712 0,2.58697 -0.31239,2.85053 -3.25,2.74198 -1.7875,-0.0661 -5.275,-0.56254 -7.75,-1.1033 z m 35,-5.61832 c 0,-2.47702 0.54542,-3.00493 4.25,-4.11354 2.3375,-0.6995 6.95,-2.62811 10.25,-4.2858 24.05524,-12.08363 41.03673,-33.21734 47.61612,-59.25895 4.56919,-18.08509 2.50554,-41.20873 -5.20441,-58.31661 -6.68237,-14.82776 -19.5283,-29.764077 -32.93049,-38.289187 -5.63992,-3.587544 -6.80018,-4.76135 -6.32041,-6.394203 0.86162,-2.932444 0.77111,-2.934014 6.36464,0.110369 5.38981,2.9335 17.54291,12.894923 22.16158,18.164984 9.45384,10.787137 18.77457,29.163007 21.79253,42.964057 10.15083,46.41952 -15.64823,92.93972 -61.12882,110.22588 C 262.04427,254.55228 262,254.54707 262,251.15829 Z M 114.5,187.58518 c -7.32576,-2.35703 -20.86253,-8.85562 -26.704191,-12.81988 l -3.42004,-2.3209 10.062115,0.39633 c 5.534164,0.21799 13.403656,0.9055 17.487766,1.5278 l 7.42565,1.13147 1.15062,5 c 0.63284,2.75 1.48412,6.0125 1.89174,7.25 0.88384,2.68331 0.96368,2.68498 -7.89366,-0.16482 z M 352.37726,187.25 c 0.33573,-1.5125 0.89455,-4.83406 1.24181,-7.38124 0.62471,-4.58231 0.67743,-4.63755 4.99038,-5.22871 2.39744,-0.3286 8.75359,-0.85003 14.12477,-1.15871 5.37118,-0.30869 11.56578,-0.78361 13.76578,-1.05538 l 4,-0.49413 -5.24394,3.55657 c -5.98991,4.06251 -17.99561,9.72038 -26.67122,12.56922 -3.25333,1.06831 -6.11829,1.94238 -6.36657,1.94238 -0.24828,0 -0.17674,-1.2375 0.15899,-2.75 z m -11.29831,-2.83333 c 0.048,-1.16495 0.28494,-1.4019 0.60416,-0.60417 0.28887,0.72187 0.25335,1.58437 -0.0789,1.91667 -0.33229,0.33229 -0.56864,-0.25834 -0.52522,-1.3125 z M 342.15789,180 c 0,-1.375 0.22698,-1.9375 0.50439,-1.25 0.27741,0.6875 0.27741,1.8125 0,2.5 -0.27741,0.6875 -0.50439,0.125 -0.50439,-1.25 z m -211.48602,-2.89063 c -0.36953,-1.84765 -0.61481,-5.21562 -0.54507,-7.48437 0.10389,-3.37953 0.28147,-2.95032 0.98261,2.375 0.93321,7.08792 0.64089,10.50151 -0.43754,5.10937 z m 212.74282,-16.21615 c -0.0937,-16.90464 -1.76441,-26.16696 -7.28399,-40.38165 -3.10181,-7.98816 -10.67783,-20.886763 -14.07207,-23.95851 -3.21534,-2.909844 -2.47667,-5.176109 3.13218,-9.60965 C 335.38775,78.88319 346.41526,75.12757 367.5,72.534239 409.62517,67.353029 431.50398,61.787566 454,50.530637 l 7.5,-3.752973 -3,3.190878 c -1.65,1.754983 -5.96469,5.16616 -9.58819,7.580393 C 431.98296,68.828121 414.90806,73.436694 375,77.497976 c -24.15664,2.458324 -36.59249,6.35462 -41.92686,13.136176 -2.69028,3.420136 -2.60532,6.893186 0.2926,11.960348 1.28791,2.25198 2.59545,5.17698 2.90565,6.5 0.3102,1.32303 1.7349,6.4555 3.16599,11.4055 4.79994,16.60246 6.91877,39.72619 4.75499,51.89322 -0.40749,2.29136 -0.72747,-2.44031 -0.77768,-11.5 z M 129.61461,153 c 0.90771,-18.47036 4.55501,-34.4376 11.46003,-50.17007 3.30287,-7.525279 3.06001,-9.501183 -1.724,-14.026316 C 133.10368,82.894689 122.35768,79.882716 99,77.493819 65.854345,74.103861 50.808164,70.822609 36.631804,63.892642 28.021652,59.683658 15,50.713175 15,48.990713 c 0,-0.560727 2.766997,0.377272 6.148882,2.084443 C 38.876767,60.024163 63.753975,66.927293 91,70.45801 c 6.325,0.819635 15.325,1.995883 20,2.613884 11.56373,1.528642 21.98458,4.386735 29.11117,7.984224 C 146.70029,84.382298 154,90.466191 154,92.631676 c 0,0.769424 -2.19464,4.429561 -4.87698,8.133634 C 139.12663,114.56946 133.94509,128.6265 130.97474,150 l -1.87615,13.5 z m -34.111548,7.42078 C 76.140376,158.79911 70.939231,157.67493 64.734433,153.77039 60.304465,150.98271 52,142.64718 52,140.98832 c 0,-0.40156 1.9125,-0.38116 4.25,0.0453 2.3375,0.4265 13.475,1.50879 24.75,2.40508 19.79358,1.57348 33.95163,3.22173 36.68567,4.27088 1.4133,0.54234 1.66722,4.52223 0.67248,10.54038 -0.72412,4.38094 1.27128,4.19141 -22.855088,2.17078 z m 260.094278,-5.0467 c -0.37336,-3.64425 -0.49327,-6.81148 -0.26646,-7.03829 1.20523,-1.20523 17.71258,-3.36079 37.16912,-4.8536 12.1,-0.92838 23.89554,-2.0304 26.21232,-2.44893 3.71787,-0.67165 4.10945,-0.56876 3.33596,0.87653 -1.3654,2.55127 -11.33409,11.66966 -14.60629,13.36042 -5.1585,2.66542 -10.50679,3.60823 -29.42522,5.18717 C 367.85099,161.30582 358.80063,162 357.90486,162 c -1.27272,0 -1.77703,-1.4481 -2.30752,-6.62592 z M 114,133.89 c -1.925,-0.49791 -12.95,-1.56828 -24.5,-2.37861 -34.251345,-2.40301 -40.849452,-3.70811 -48.274494,-9.54865 -2.614451,-2.05652 -9.507788,-11.01379 -8.924719,-11.59686 0.161156,-0.16116 4.546906,0.58868 9.746112,1.6663 5.199206,1.07762 20.703101,2.87553 34.453101,3.99534 29.29311,2.38567 36.41333,3.39821 42.34377,6.02152 3.94273,1.74406 4.31147,2.1963 3.71818,4.56017 -0.36224,1.44327 -0.91812,3.92162 -1.23528,5.50745 -0.61853,3.09264 -1.44893,3.29362 -7.32667,1.77334 z m 238.63592,-3.52957 C 352.28617,127.80866 352,125.14998 352,124.45223 c 0,-0.69774 2.8125,-2.22795 6.25,-3.40047 4.77187,-1.62767 13.21848,-2.72269 35.71493,-4.63009 16.20571,-1.37404 33.49616,-3.37807 38.42321,-4.45342 4.92705,-1.07534 9.1684,-1.74504 9.42523,-1.48822 0.25682,0.25683 -1.38544,2.92043 -3.64947,5.91911 -7.91997,10.48993 -18.19782,13.32573 -54.6639,15.08254 -7.7,0.37096 -17.15,1.31397 -21,2.09558 -3.85,0.7816 -7.50133,1.42147 -8.11408,1.42192 -0.61274,4.5e-4 -1.40024,-2.08699 -1.75,-4.63875 z M 120.10668,109.02396 C 113.83197,106.88816 103.40139,105.31789 90,104.49154 55.668193,102.37459 38.06623,99.452067 29.339692,94.419876 22.779612,90.63698 14.477114,76.635568 12.280075,65.650373 l -0.580266,-2.901327 7.668461,5.225855 C 36.881365,79.909619 50.437581,83.496443 93.5,87.589334 c 19.18519,1.823468 25.86832,3.131468 32.83985,6.427313 5.10637,2.414073 6.51495,4.205019 4.91256,6.246083 -0.53424,0.6805 -1.77072,3.37477 -2.74774,5.98727 -0.97701,2.6125 -2.05275,4.71844 -2.39053,4.67987 -0.33778,-0.0386 -3.04114,-0.89623 -6.00746,-1.90591 z m 225.09462,-3.79104 c -1.26429,-3.15311 -2.53502,-6.256571 -2.82386,-6.896588 -0.68263,-1.512588 10.47677,-6.782933 17.43464,-8.234006 2.92164,-0.609312 14.62164,-1.992024 26,-3.072691 24.41583,-2.318912 35.33083,-4.117159 45.86749,-7.556672 9.09108,-2.967628 21.07107,-9.220582 27.07043,-14.129406 2.3375,-1.912601 4.25,-3.050906 4.25,-2.529566 0,1.556971 -4.84591,13.948416 -7.51338,19.212414 C 448.58368,95.648693 440.3206,99.271732 409,102.40897 c -7.975,0.79882 -19.225,1.73744 -25,2.08583 -13.72661,0.82808 -22.9581,2.25446 -29.77914,4.60124 -3.04368,1.04718 -5.80101,1.89627 -6.12741,1.88688 -0.3264,-0.009 -1.62787,-2.5969 -2.89215,-5.75 z M 253.75,1.294267 c 1.2375,-0.2383529 3.2625,-0.2383529 4.5,0 1.2375,0.2383529 0.225,0.4333689 -2.25,0.4333689 -2.475,0 -3.4875,-0.195016 -2.25,-0.4333689 z"
       id="path48"
       inkscape:connector-curvature="0" />
  </g>
</svg>
